<?xml version="1.0" encoding="UTF-8" standalone="no"?>
<svg
   xmlns:dc="http://purl.org/dc/elements/1.1/"
   xmlns:cc="http://creativecommons.org/ns#"
   xmlns:rdf="http://www.w3.org/1999/02/22-rdf-syntax-ns#"
   xmlns:svg="http://www.w3.org/2000/svg"
   xmlns="http://www.w3.org/2000/svg"
   id="svg8"
   version="1.1"
   viewBox="0 0 33.866667 33.86664"
   height="128"
   width="128">
  <defs
     id="defs2" />
  <metadata
     id="metadata5">
    <rdf:RDF>
      <cc:Work
         rdf:about="">
        <dc:format>image/svg+xml</dc:format>
        <dc:type
           rdf:resource="http://purl.org/dc/dcmitype/StillImage" />
        <dc:title></dc:title>
      </cc:Work>
    </rdf:RDF>
  </metadata>
  <g
     transform="translate(0,-263.1336)"
     id="layer1">
    <g
       id="layer1-3"
       transform="matrix(2.5138848,0,0,2.5138848,0.99484753,-450.54498)">
      <path
         style="fill:#333333;stroke-width:0.99999994"
         d="M 24,0.07226562 A 23.854546,23.854546 0 0 0 13.353516,2.5898438 L 30.3125,10.427734 47.130859,18.201172 A 23.854546,23.854546 0 0 0 24,0.07226562 Z M 7.5703125,6.6484375 A 23.854546,23.854546 0 0 0 0.14453125,23.927734 23.854546,23.854546 0 0 0 10.955078,43.875 L 9.2636719,25.273438 Z M 47.78125,25.404297 32.644531,36.080078 17.400391,46.832031 A 23.854546,23.854546 0 0 0 24,47.78125 23.854546,23.854546 0 0 0 47.78125,25.404297 Z"
         transform="matrix(0.26458333,0,0,0.26458333,0,284.3)"
         id="path10" />
      <g
         aria-label="P"
         transform="rotate(-5.1862385)"
         style="font-style:normal;font-variant:normal;font-weight:bold;font-stretch:normal;font-size:12.5042305px;line-height:1.25;font-family:sans-serif;-inkscape-font-specification:'sans-serif Bold';letter-spacing:0px;word-spacing:0px;fill:#00aa88;fill-opacity:1;stroke:none;stroke-width:0.31260574"
         id="text41">
        <path
           d="m -22.869708,285.58905 h 3.901467 q 1.74009,0 2.668139,0.77541 0.934154,0.7693 0.934154,2.19801 0,1.43481 -0.934154,2.21022 -0.928049,0.7693 -2.668139,0.7693 h -1.550818 v 3.16269 h -2.350649 z m 2.350649,1.70346 v 2.54602 h 1.300489 q 0.683825,0 1.056265,-0.3297 0.372441,-0.33581 0.372441,-0.94636 0,-0.61056 -0.372441,-0.94026 -0.37244,-0.3297 -1.056265,-0.3297 z"
           style="font-style:normal;font-variant:normal;font-weight:bold;font-stretch:normal;font-family:sans-serif;-inkscape-font-specification:'sans-serif Bold';fill:#00aa88;stroke-width:0.31260574"
           id="path39" />
      </g>
    </g>
  </g>
</svg>
