<?xml version="1.0" encoding="UTF-8" standalone="no"?>
<svg
   xmlns:dc="http://purl.org/dc/elements/1.1/"
   xmlns:cc="http://creativecommons.org/ns#"
   xmlns:rdf="http://www.w3.org/1999/02/22-rdf-syntax-ns#"
   xmlns:svg="http://www.w3.org/2000/svg"
   xmlns="http://www.w3.org/2000/svg"
   id="svg8"
   version="1.1"
   viewBox="0 0 12.7 12.7"
   height="48"
   width="48">
  <defs
     id="defs2" />
  <metadata
     id="metadata5">
    <rdf:RDF>
      <cc:Work
         rdf:about="">
        <dc:format>image/svg+xml</dc:format>
        <dc:type
           rdf:resource="http://purl.org/dc/dcmitype/StillImage" />
        <dc:title></dc:title>
      </cc:Work>
    </rdf:RDF>
  </metadata>
  <g
     transform="translate(0,-284.3)"
     id="layer1">
    <path
       id="path10"
       transform="matrix(0.26458333,0,0,0.26458333,0,284.3)"
       d="M 24 0.072265625 A 23.854546 23.854546 0 0 0 13.353516 2.5898438 L 30.3125 10.427734 L 47.130859 18.201172 A 23.854546 23.854546 0 0 0 24 0.072265625 z M 7.5703125 6.6484375 A 23.854546 23.854546 0 0 0 0.14453125 23.927734 A 23.854546 23.854546 0 0 0 10.955078 43.875 L 9.2636719 25.273438 L 7.5703125 6.6484375 z M 47.78125 25.404297 L 32.644531 36.080078 L 17.400391 46.832031 A 23.854546 23.854546 0 0 0 24 47.78125 A 23.854546 23.854546 0 0 0 47.78125 25.404297 z "
       style="fill:#333333;stroke-width:0.99999994" />
    <text
       transform="rotate(-5.1862385)"
       id="text41"
       y="293.94431"
       x="-23.376251"
       style="font-style:normal;font-variant:normal;font-weight:bold;font-stretch:normal;font-size:9.36534405px;line-height:1.25;font-family:sans-serif;-inkscape-font-specification:'sans-serif Bold';letter-spacing:0px;word-spacing:0px;fill:#d45500;fill-opacity:1;stroke:none;stroke-width:0.2341336"
       xml:space="preserve"><tspan
         style="font-style:normal;font-variant:normal;font-weight:bold;font-stretch:normal;font-family:sans-serif;-inkscape-font-specification:'sans-serif Bold';fill:#d45500;stroke-width:0.2341336"
         y="293.94431"
         x="-23.376251"
         id="tspan39">P</tspan></text>
  </g>
</svg>
