<?xml version="1.0" encoding="UTF-8" standalone="no"?>
<svg
   xmlns:dc="http://purl.org/dc/elements/1.1/"
   xmlns:cc="http://creativecommons.org/ns#"
   xmlns:rdf="http://www.w3.org/1999/02/22-rdf-syntax-ns#"
   xmlns:svg="http://www.w3.org/2000/svg"
   xmlns="http://www.w3.org/2000/svg"
   version="1.1"
   id="svg2"
   width="128.39828"
   height="128.44977"
   viewBox="0 0 128.39828 128.44977">
  <metadata
     id="metadata8">
    <rdf:RDF>
      <cc:Work
         rdf:about="">
        <dc:format>image/svg+xml</dc:format>
        <dc:type
           rdf:resource="http://purl.org/dc/dcmitype/StillImage" />
        <dc:title></dc:title>
      </cc:Work>
    </rdf:RDF>
  </metadata>
  <defs
     id="defs6" />
  <path
     id="path20"
     d="M 36.993395,109.4905 C 22.569314,102.79378 10.404409,97.013075 9.9602733,96.644474 9.2348091,96.042392 9.1527526,92.814844 9.1527526,64.881997 V 33.789701 l 1.1177904,-0.782932 c 0.614786,-0.430612 1.399265,-0.782932 1.743288,-0.782932 0.344023,0 12.229832,5.103936 26.412903,11.342079 20.298722,8.927989 26.002646,11.245787 26.798662,10.889654 0.556193,-0.248836 10.460275,-4.5956 22.009077,-9.659479 11.548802,-5.063878 20.997817,-9.36221 20.997817,-9.551848 0,-0.385368 -43.198606,-20.12406 -44.03713,-20.121839 -0.292969,7.54e-4 -7.761655,3.315958 -16.597081,7.367073 C 28.432832,31.276895 28.437358,31.275128 26.896053,30.572863 25.609487,29.986666 24.982062,28.318198 25.470026,26.780752 25.942354,25.292588 63.387591,8.3324788 65.044649,8.8561791 66.838838,9.4232196 116.86034,32.181802 118.1654,33.024846 l 1.13161,0.731006 v 31.109221 c 0,27.931142 -0.0824,31.177591 -0.80644,31.778506 -1.2601,1.045792 -53.544961,25.108881 -54.458193,25.063331 -0.447356,-0.0223 -12.614897,-5.5197 -27.038982,-12.21641 z m 24.585587,-17.020207 0.131192,-21.230125 1.325136,-0.74366 c 1.188744,-0.667122 1.460513,-0.654961 2.640445,0.118161 l 1.315309,0.861826 v 21.14884 c 0,18.503695 0.09403,21.128495 0.751812,20.986225 0.413499,-0.0894 10.81842,-4.80225 23.122047,-10.47292 l 22.370227,-10.310307 0.0133,-26.33737 c 0.0125,-24.848533 -0.0365,-26.322972 -0.86687,-26.082607 -0.48408,0.140122 -11.47298,4.91121 -24.419773,10.60242 L 64.422167,61.358432 62.060282,60.419494 C 60.761254,59.903079 50.079645,55.246436 38.323379,50.071396 26.567113,44.89636 16.552284,40.547793 16.068202,40.407914 c -0.830394,-0.239948 -0.87936,1.234503 -0.866203,26.083049 l 0.01395,26.33737 22.492702,10.402867 c 12.370987,5.72158 22.773151,10.4178 23.115921,10.43604 0.484388,0.0258 0.652441,-4.69616 0.754413,-21.196947 z"
     style="fill:#000000;stroke-width:0.50294185" />
</svg>
