<?xml version="1.0" encoding="UTF-8" standalone="no"?>
<svg
   xmlns:dc="http://purl.org/dc/elements/1.1/"
   xmlns:cc="http://creativecommons.org/ns#"
   xmlns:rdf="http://www.w3.org/1999/02/22-rdf-syntax-ns#"
   xmlns:svg="http://www.w3.org/2000/svg"
   xmlns="http://www.w3.org/2000/svg"
   viewBox="0 0 746 200"
   height="200"
   width="746"
   id="svg2"
   version="1.1">
  <metadata
     id="metadata8">
    <rdf:RDF>
      <cc:Work
         rdf:about="">
        <dc:format>image/svg+xml</dc:format>
        <dc:type
           rdf:resource="http://purl.org/dc/dcmitype/StillImage" />
        <dc:title></dc:title>
      </cc:Work>
    </rdf:RDF>
  </metadata>
  <defs
     id="defs6" />
  <g
     transform="translate(-9.2918113,-1.327402)"
     id="g4548">
    <path
       id="path4610"
       d="M 44.706024,140.44446 44.719094,113.77779 58.787751,101.33834 72.856404,88.898885 58.760237,78.328783 C 51.007346,72.515224 44.77857,67.645119 44.918512,67.506328 45.058455,67.367535 51.425118,62.565836 59.06665,56.835887 L 72.960349,46.417794 h 25.147667 25.147664 l 14.0383,14.041018 c 7.72106,7.72256 13.98445,14.185363 13.91863,14.361785 -0.0658,0.176423 -6.34759,5.690032 -13.95951,12.252467 -7.61191,6.562432 -13.79605,11.975492 -13.74252,12.029018 0.0535,0.05353 6.28145,3.116688 13.83985,6.807038 7.55839,3.69034 13.74252,6.85058 13.74252,7.02275 0,0.17218 -6.32794,5.14894 -14.06208,11.05949 l -14.06209,10.74643 H 98.123664 73.278548 l -14.014692,16.08 c -7.708082,8.844 -14.139841,16.128 -14.292798,16.18667 -0.156165,0.0599 -0.272373,-11.58576 -0.265034,-26.56 z m 43.948274,-23.55959 c 5.082739,-5.68306 9.364531,-10.29105 9.515098,-10.23996 0.150566,0.0511 5.615144,6.06888 12.143504,13.37288 6.52836,7.304 12.00257,13.4168 12.1649,13.584 0.18027,0.18567 0.29515,-11.18023 0.29515,-29.2 V 74.897794 l -11.76,-0.0077 -11.759996,-0.0077 -12.770432,-13.752333 c -7.023734,-7.563758 -12.819734,-13.752307 -12.88,-13.752307 -0.06026,0 -0.109568,19.444419 -0.109568,43.209821 V 133.7974 l 2.96,-3.28986 c 1.628,-1.80942 7.118605,-7.93964 12.201344,-13.62271 z"
       style="fill:#f3f8f5;stroke-width:0.31999999" />
    <path
       id="path4608"
       d="m 44.692954,140.20446 c 0,-14.69785 0.123863,-26.58091 0.277682,-26.64 0.332825,-0.12785 27.456193,-24.156064 27.684283,-24.525124 0.0873,-0.141248 -6.090458,-4.92888 -13.728346,-10.639177 -7.637886,-5.710301 -13.886975,-10.526365 -13.886864,-10.702365 1.1e-4,-0.176 6.307209,-5.036 14.015776,-10.8 l 14.015571,-10.48 h 24.932298 24.932296 l 14.22464,14.227341 c 7.82356,7.825037 14.15896,14.280173 14.07866,14.344752 -0.0803,0.06458 -6.40223,5.501315 -14.04874,12.081641 l -13.90273,11.964231 13.98273,6.869681 c 7.69051,3.77832 13.97675,6.95128 13.96943,7.05101 -0.007,0.0997 -6.37933,5.03595 -14.16,10.96936 l -14.14669,10.78802 -24.86437,0.012 -24.864375,0.012 -13.957625,16 c -7.676694,8.8 -14.091726,16 -14.255626,16 -0.181604,0 -0.298,-10.36368 -0.298,-26.53333 z M 86.44168,119.4112 c 6.329799,-7.06251 11.601018,-12.80323 11.713818,-12.75716 0.112803,0.0461 5.282022,5.77175 11.487142,12.72375 6.20513,6.952 11.69791,13.06924 12.20619,13.59385 l 0.92412,0.95385 V 104.41164 74.897794 l -11.76,-0.02502 -11.759996,-0.02502 -11.84,-12.782106 c -6.512,-7.030159 -12.308,-13.239145 -12.88,-13.797749 l -1.04,-1.015644 0.01152,43.342773 0.01152,43.342772 0.70849,-0.84283 c 0.38967,-0.46356 5.88742,-6.62125 12.217219,-13.68376 z"
       style="fill:#ddeae4;stroke-width:0.31999999" />
    <path
       id="path4606"
       d="M 44.692954,140.36905 V 114.0003 l 14,-12.39913 c 7.7,-6.81952 14.040829,-12.50007 14.090733,-12.623446 0.0499,-0.123376 -6.178099,-4.926429 -13.84,-10.673447 -7.661904,-5.747021 -13.930733,-10.519264 -13.930733,-10.604992 0,-0.08572 6.334313,-4.909129 14.07625,-10.718678 L 73.165456,46.417794 h 24.885098 24.885096 l 14.19437,14.197059 14.19437,14.197059 -2.72431,2.362941 c -1.49838,1.299619 -7.76829,6.682941 -13.93315,11.962941 -6.16486,5.28 -11.17926,9.719194 -11.14311,9.864874 0.0362,0.145683 6.28999,3.303892 13.89743,7.018252 7.60744,3.71436 13.82254,6.83516 13.81133,6.93512 -0.0112,0.1 -6.41318,5.04175 -14.22662,10.98175 l -14.20626,10.8 -24.893376,0.0226 -24.89337,0.0226 -13.88921,15.9774 c -7.639062,8.78758 -14.011062,15.97741 -14.159998,15.97741 -0.148936,0 -0.270792,-11.86593 -0.270792,-26.36874 z M 80.07912,126.57779 c 3.140484,-3.52 6.308983,-7.048 7.041111,-7.84 0.732128,-0.792 3.452134,-3.816 6.044457,-6.72 2.592327,-2.904 4.806682,-5.30492 4.920791,-5.33538 0.114112,-0.0305 4.782091,5.08154 10.373281,11.36 5.5912,6.27846 11.09253,12.42338 12.22519,13.65538 l 2.05938,2.24 0.0148,-29.52 0.0148,-29.519996 H 111.12139 99.469831 L 87.041392,61.553192 C 80.205751,54.213663 74.365744,47.913663 74.0636,47.553193 c -0.519667,-0.619983 -0.549929,1.695679 -0.56,42.853174 -0.009,36.839343 0.05651,43.436743 0.427453,43.040003 0.240957,-0.25772 3.007584,-3.34858 6.148067,-6.86858 z"
       style="fill:#d1e3db;stroke-width:0.31999999" />
    <path
       id="path4604"
       d="m 45.025249,140.30839 -0.0123,-26.58941 13.84,-12.25397 c 7.612,-6.73969 13.880829,-12.356947 13.930733,-12.482794 0.0499,-0.125846 -6.178099,-4.930921 -13.84,-10.677939 -7.661904,-5.747021 -13.930733,-10.519264 -13.930733,-10.604992 0,-0.08572 6.334313,-4.909129 14.07625,-10.718678 L 73.165456,46.417794 h 24.885098 24.885096 l 14.18733,14.190019 14.18733,14.190019 -13.86867,11.937895 c -7.62778,6.56584 -13.96819,12.024329 -14.0898,12.129981 -0.12162,0.105648 6.10083,3.274812 13.82766,7.042592 7.72684,3.76778 13.97836,6.96447 13.89228,7.10376 -0.0861,0.13928 -6.40096,5.01761 -14.03306,10.84073 l -13.87655,10.58749 -16.5946,-0.0178 c -9.127042,-0.01 -20.410616,0.0814 -25.074616,0.20273 l -8.48,0.22054 -12.64,14.50483 c -6.952,7.97766 -13.246467,15.18937 -13.987705,16.02602 l -1.347705,1.52118 z m 40.805884,-20.10251 c 6.67361,-7.46455 12.244829,-13.50331 12.380487,-13.41947 0.135657,0.0838 5.65253,6.1912 12.25971,13.57191 6.60719,7.38071 12.07799,13.41947 12.15734,13.41947 0.0794,0 0.14428,-13.248 0.14428,-29.44 V 74.897794 h -11.6494 -11.649402 l -12.878618,-13.84 c -7.083238,-7.612 -13.000736,-13.88791 -13.149997,-13.946468 -0.31904,-0.125162 -0.371881,66.004144 -0.06254,78.266464 0.116548,4.62 0.234944,8.4 0.263104,8.4 0.02816,0 5.511428,-6.10736 12.185036,-13.57191 z"
       style="fill:#c8d8d3;stroke-width:0.31999999" />
    <path
       id="path4602"
       d="m 45.012954,140.30652 v -26.57673 l 13.84,-12.25769 c 7.612,-6.741727 13.880829,-12.361413 13.930733,-12.488191 0.0499,-0.126777 -6.178099,-4.932614 -13.84,-10.679632 -7.661904,-5.747021 -13.930733,-10.519264 -13.930733,-10.604992 0,-0.08572 6.334313,-4.909129 14.07625,-10.718678 L 73.165456,46.417794 h 24.885098 24.885096 l 14.18566,14.188342 14.18565,14.188343 -13.68763,11.811657 c -7.52819,6.496413 -13.88384,11.95921 -14.12367,12.139556 -0.32666,0.245641 3.10027,2.048738 13.66126,7.187928 11.28432,5.49118 14.01737,6.9399 13.69667,7.26023 -0.22035,0.2201 -6.52064,5.0798 -14.00064,10.79933 l -13.6,10.39913 -24.799996,0.0176 c -13.64,0.01 -24.953718,0.12344 -25.1416,0.25274 -0.187878,0.12932 -6.291437,7.07511 -13.563462,15.43511 -7.272026,8.36 -13.562307,15.55673 -13.978402,15.99273 l -0.756536,0.79273 z m 40.799789,-20.07084 c 6.687885,-7.47837 12.269081,-13.52949 12.402659,-13.44693 0.133578,0.0826 5.648748,6.18886 12.255928,13.56957 6.60719,7.38071 12.07799,13.41947 12.15734,13.41947 0.0794,0 0.14428,-13.248 0.14428,-29.44 V 74.897794 H 111.12202 99.471092 l -12.872666,-13.84 c -7.079962,-7.612 -12.997043,-13.888 -13.149066,-13.946667 -0.154377,-0.05957 -0.276406,19.126971 -0.276406,43.458885 0,23.961058 0.108,43.497418 0.24,43.414128 0.132,-0.0833 5.711904,-6.27009 12.399789,-13.74846 z"
       style="fill:#b6d3c7;stroke-width:0.31999999" />
    <path
       id="path4600"
       d="m 45.012954,140.27803 v -26.59691 l 1.982673,-1.71167 c 5.514042,-4.76032 25.709305,-22.743115 25.78806,-22.962872 0.0499,-0.139245 -6.194215,-4.96737 -13.875815,-10.729165 C 51.13455,72.446821 45.06363,67.680047 45.217139,67.527701 45.368838,67.377154 51.745118,62.565836 59.38665,56.835887 L 73.280349,46.417794 H 98.108 122.93565 l 14.18419,14.18688 14.1842,14.186877 -13.34591,11.493123 c -7.34026,6.321216 -13.69831,11.783184 -14.12901,12.137709 l -0.7831,0.644589 14.10581,6.864178 c 13.24011,6.4429 14.0713,6.89661 13.54347,7.39273 -0.30929,0.2907 -6.63475,5.15576 -14.05658,10.81124 l -13.49424,10.28267 H 98.379879 c -19.331232,0 -24.874487,0.0878 -25.265443,0.4 -0.275463,0.22 -6.512621,7.312 -13.860356,15.76 -7.347731,8.448 -13.557875,15.57086 -13.800319,15.82858 -0.374632,0.39822 -0.440807,-3.52423 -0.440807,-26.12834 z m 32.038752,-10.24737 c 2.002685,-2.23693 7.55673,-8.42353 12.342317,-13.74802 l 8.701065,-9.68088 11.938932,13.33037 c 6.56642,7.33171 12.11435,13.55432 12.32876,13.82802 0.30722,0.3922 0.39198,-5.79109 0.4,-29.18236 l 0.0102,-29.679996 H 111.15045 99.527943 L 87.870448,62.393922 C 81.458826,55.516793 75.530864,49.144793 74.697204,48.233923 l -1.515754,-1.656129 -0.0043,43.76 c -0.0022,24.067996 0.04919,43.759996 0.114502,43.759996 0.06531,0 1.757312,-1.83021 3.76,-4.06713 z"
       style="fill:#aacabe;stroke-width:0.31999999" />
    <path
       id="path4598"
       d="m 45.023099,140.33779 -0.0071,-26.56 13.998463,-12.39264 13.998464,-12.392652 0.16,22.582552 0.16,22.58255 1.287881,-1.38991 c 0.708336,-0.76444 5.594643,-6.2139 10.858464,-12.1099 5.263818,-5.896 10.261664,-11.46462 11.106323,-12.37472 l 1.535748,-1.65472 12.245788,13.68853 12.24579,13.68853 0.0827,-17.3938 c 0.0455,-9.5666 0.2078,-17.393816 0.36067,-17.393816 0.21911,0 27.75484,13.324646 28.13446,13.614376 0.0538,0.0411 -6.23971,4.91465 -13.98564,10.83016 l -14.08351,10.75546 -24.894356,0.001 -24.894358,0.001 -13.28,15.21189 c -7.304,8.36653 -13.672126,15.67399 -14.151392,16.23878 l -0.871391,1.02691 -0.0071,-26.56 z M 122.77295,86.897794 v -12 H 111.1496 99.526247 L 86.4296,60.808245 73.332954,46.718696 l -0.0823,20.969549 c -0.04526,11.533251 -0.154057,20.969549 -0.241763,20.969549 -0.486669,0 -27.981198,-20.942387 -27.76979,-21.152054 0.13962,-0.138471 6.506018,-4.939904 14.14755,-10.669853 L 73.280349,46.417794 H 98.108 122.93565 l 14.17928,14.181958 14.17927,14.181962 -8.58063,7.37663 c -4.71934,4.057146 -11.0267,9.483264 -14.01636,12.058039 -2.98966,2.574777 -5.54566,4.681411 -5.68,4.681411 -0.13434,0 -0.24426,-5.4 -0.24426,-12 z"
       style="fill:#9ec4b4;stroke-width:0.31999999" />
    <path
       id="path4596"
       d="m 45.028062,140.33779 -0.0079,-26.56 13.996399,-12.39131 13.9964,-12.39132 0.16,22.62053 0.16,22.62053 12.377386,-13.81272 12.377386,-13.81272 12.217847,13.66351 c 6.71982,7.51492 12.346,13.7115 12.50262,13.77017 0.16418,0.0615 0.28476,-7.30391 0.28476,-17.39424 0,-13.87413 0.0829,-17.467191 0.4,-17.338247 0.47084,0.191456 27.55536,13.410347 27.69515,13.516907 0.0523,0.0399 -6.2469,4.91372 -13.99829,10.83073 l -14.09343,10.75818 H 98.208621 73.320858 l -13.433952,15.3949 c -7.388673,8.4672 -13.752773,15.7752 -14.142444,16.24 l -0.708492,0.8451 -0.0079,-26.56 z M 123.09178,91.48102 c -6.4e-4,-4.104775 -0.095,-9.515226 -0.20977,-12.023226 l -0.20861,-4.56 H 111.10333 99.533255 L 86.433104,60.8042 73.332954,46.710605 73.250653,67.6842 c -0.04526,11.535476 -0.154057,20.973594 -0.241763,20.973594 -0.486669,0 -27.981198,-20.942387 -27.76979,-21.152054 0.13962,-0.138471 6.506018,-4.939904 14.14755,-10.669853 L 73.280349,46.417794 H 98.108 122.93565 l 14.17137,14.174058 14.17138,14.174057 -13.35571,11.505943 c -7.34564,6.328268 -13.68736,11.768393 -14.09272,12.089168 l -0.73702,0.583225 -0.001,-7.463225 z"
       style="fill:#8ab6a5;stroke-width:0.31999999" />
    <path
       id="path4594"
       d="m 45.025202,140.33779 -0.0081,-26.56 5.35793,-4.69967 c 2.94686,-2.58483 9.245928,-8.14787 13.997928,-12.362316 l 8.64,-7.662637 0.16,22.593263 0.16,22.59326 8.311357,-9.27095 c 13.739952,-15.32631 16.278547,-18.08771 16.545171,-17.99734 0.140189,0.0475 5.727732,6.20639 12.416752,13.68639 l 12.16186,13.6 -24.747745,0.082 -24.747734,0.082 -13.729831,15.73419 c -7.551406,8.65381 -13.90525,15.96093 -14.119653,16.23805 -0.307365,0.39728 -0.391538,-5.11427 -0.397929,-26.05614 z m 78.067748,-23.70666 c 0,-10.21272 0.11958,-17.42237 0.28792,-17.360002 1.60799,0.595719 27.54285,13.568612 27.47838,13.744982 -0.0475,0.12986 -1.3823,1.22349 -2.9663,2.43031 -1.584,1.20681 -7.72747,5.89707 -13.65215,10.42279 -5.92469,4.52572 -10.85669,8.22858 -10.96,8.22858 -0.10332,0 -0.18785,-7.86 -0.18785,-17.46666 z m 0,-29.677557 V 74.897794 l -11.76,-0.0053 -11.759996,-0.0053 -10.88,-11.6832 C 82.708954,56.778223 76.774666,50.408611 75.505648,49.049289 l -2.307305,-2.471495 -0.0127,21.04 c -0.007,11.572 -0.08549,21.04 -0.174458,21.04 -0.468294,0 -27.986642,-20.935654 -27.772091,-21.128701 0.13962,-0.125622 6.530004,-4.927056 14.200853,-10.669853 L 73.386954,46.417794 h 24.774349 24.774347 l 14.16991,14.172595 14.16991,14.172592 -5.21126,4.465373 c -8.82988,7.566061 -21.4931,18.456218 -22.25126,19.135709 l -0.72,0.645293 z"
       style="fill:#78b199;stroke-width:0.31999999" />
    <path
       id="path4592"
       d="m 45.02851,140.28232 0.01556,-26.50453 13.984443,-12.3565 13.984445,-12.356507 0.16,22.582147 0.16,22.58214 8.486352,-9.42564 c 4.667491,-5.1841 10.199552,-11.33762 12.293466,-13.67448 2.09391,-2.33686 3.921398,-4.20886 4.061081,-4.16 0.139683,0.0489 5.726443,6.20884 12.415033,13.68884 l 12.16107,13.6 -24.751133,0.082 -24.751143,0.0819 -1.740681,1.99805 c -0.957376,1.09892 -7.310189,8.38108 -14.117363,16.18257 l -12.376682,14.18452 z m 78.06444,-23.63274 V 99.201359 l 0.88,0.437398 c 0.484,0.24057 6.75077,3.295963 13.92615,6.789763 7.17539,3.4938 13.00739,6.4524 12.96,6.57466 -0.10485,0.27058 -27.34073,21.09461 -27.58976,21.09461 -0.097,0 -0.17639,-7.8517 -0.17639,-17.44821 z m 0,-29.696007 V 74.897794 l -11.76,-0.0071 -11.759996,-0.0071 -12.96,-13.943341 c -7.128,-7.668838 -13.008,-14.073655 -13.066666,-14.232928 -0.06306,-0.171206 10.010138,-0.289587 24.641348,-0.289587 h 24.748014 l 14.1706,14.17328 14.17059,14.173277 -2.81194,2.385849 c -3.5866,3.043117 -23.69697,20.343844 -24.65195,21.207789 l -0.72,0.651367 z M 59.092954,78.257935 c -7.656,-5.741776 -13.860161,-10.538717 -13.787025,-10.659866 0.07314,-0.121152 6.337136,-4.873213 13.920001,-10.560141 l 13.787024,-10.339863 0.08434,10.60314 c 0.04639,5.831728 0.04639,15.28161 0,20.999735 l -0.08434,10.396592 z"
       style="fill:#6aab91;stroke-width:0.31999999" />
    <path
       id="path4590"
       d="m 45.03115,140.28147 0.0182,-26.50368 13.981804,-12.35682 13.981805,-12.356827 0.16,22.558967 0.16,22.55897 3.2,-3.48865 c 1.76,-1.91876 7.291939,-8.06175 12.2932,-13.65108 5.001261,-5.58933 9.207606,-10.1224 9.347437,-10.07349 0.139827,0.0489 5.726704,6.20893 12.415294,13.68893 l 12.16107,13.6 -24.751779,0.082 -24.751782,0.0819 -3.977123,4.55805 c -2.187418,2.50692 -8.539939,9.7887 -14.116719,16.18172 l -10.139598,11.62367 z m 78.0618,-23.60754 V 99.250076 l 3.92,1.866434 c 6.31461,3.00657 23.72141,11.55602 23.90787,11.74248 0.094,0.094 -0.25861,0.48323 -0.78365,0.86488 -0.52504,0.38166 -6.75368,5.12192 -13.84141,10.53392 -7.08774,5.412 -12.9579,9.84 -13.0448,9.84 -0.0869,0 -0.15801,-7.84073 -0.15801,-17.42386 z m -0.0761,-29.827832 -0.0839,-12.108304 -11.68,0.10495 -11.679996,0.104951 -12.96,-13.979114 c -7.128,-7.688511 -12.996038,-14.071739 -13.040086,-14.18495 -0.04404,-0.11321 11.115955,-0.167223 24.8,-0.120028 l 24.880082,0.08581 14.01035,13.994191 14.01034,13.994192 -1.51164,1.28 c -1.24308,1.052595 -17.87034,15.354227 -24.82517,21.352915 l -1.83613,1.583693 z M 59.092954,78.257935 c -7.656,-5.741776 -13.860161,-10.538717 -13.787025,-10.659866 0.07314,-0.121152 6.337136,-4.873213 13.920001,-10.560141 l 13.787024,-10.339863 0.08434,10.60314 c 0.04639,5.831728 0.04639,15.28161 0,20.999735 l -0.08434,10.396592 z"
       style="fill:#659b8a;stroke-width:0.31999999" />
    <path
       id="path4588"
       d="m 45.029793,140.28147 0.01684,-26.50368 12.312876,-10.88 C 64.13159,96.913794 70.460013,91.321864 71.422669,90.471285 l 1.750285,-1.546509 -0.01037,22.826514 -0.01037,22.8265 -3.930707,4.48 c -2.161888,2.464 -8.493219,9.71066 -14.069628,16.10368 l -10.138929,11.62367 0.01684,-26.50367 z m 28.68726,-6.28495 c 0.609146,-1.00281 24.231808,-27.10632 24.458205,-27.02681 0.18696,0.0657 14.418932,15.87889 24.199392,26.88808 0.47332,0.5328 -0.70276,0.56 -24.208,0.56 -20.346109,0 -24.660342,-0.0743 -24.449597,-0.42127 z M 123.09295,116.67384 V 99.249877 l 7.6,3.682523 c 17.44911,8.45484 20.24,9.84222 20.24,10.06148 0,0.12667 -0.324,0.44368 -0.72,0.70447 -0.396,0.2608 -6.5889,4.95736 -13.76199,10.43681 -7.1731,5.47945 -13.1131,9.96263 -13.2,9.96263 -0.0869,0 -0.15801,-7.84078 -0.15801,-17.42395 z m -0.0761,-29.820376 -0.0839,-12.11567 H 111.19352 99.45408 l -2.217737,-2.4 c -1.219754,-1.32 -7.043415,-7.584 -12.941469,-13.92 l -10.723734,-11.52 24.680908,-0.16 24.680902,-0.16 14.00578,13.92 c 7.70317,7.656 13.96717,14.07711 13.92,14.269139 -0.0472,0.192026 -5.41378,4.935162 -11.92578,10.540307 -6.512,5.605146 -12.73825,10.972084 -13.83611,11.926532 l -1.99612,1.735363 z M 59.092954,78.257935 c -7.656,-5.741776 -13.860161,-10.538717 -13.787025,-10.659866 0.07314,-0.121152 6.337136,-4.873213 13.920001,-10.560141 l 13.787024,-10.339863 0.08434,10.60314 c 0.04639,5.831728 0.04639,15.28161 0,20.999735 l -0.08434,10.396592 z"
       style="fill:#58a489;stroke-width:0.31999999" />
    <path
       id="path4586"
       d="m 45.025136,140.09779 0.01218,-26.32 2.787818,-2.39939 c 1.5333,-1.31967 7.863818,-6.90242 14.067818,-12.406123 l 11.28,-10.006729 v 22.742992 22.74299 l -13.947469,15.98313 c -7.671106,8.79072 -14.007106,15.98313 -14.079999,15.98313 -0.07289,0 -0.12705,-11.844 -0.12035,-26.32 z m 28.6768,-6.07925 c 0.135716,-0.21959 4.572215,-5.21256 9.858887,-11.09549 5.286672,-5.88292 10.653965,-11.85926 11.927315,-13.28074 1.27335,-1.42148 2.435494,-2.58452 2.582544,-2.58452 0.147046,0 4.711958,4.968 10.144248,11.04 5.4323,6.072 10.94785,12.228 12.25679,13.68 l 2.37989,2.64 H 98.153396 c -19.652522,0 -24.647802,-0.0816 -24.45146,-0.39925 z m 49.391014,-17.3447 V 99.249877 l 7.6,3.682523 c 17.27612,8.37102 20.24,9.84074 20.24,10.03657 0,0.11296 -0.97146,0.91716 -2.15882,1.78711 -1.18735,0.86994 -7.39416,5.57771 -13.79292,10.46171 -6.39875,4.884 -11.69128,8.88 -11.76118,8.88 -0.0699,0 -0.12708,-7.84078 -0.12708,-17.42395 z m 0,-29.968766 V 74.47548 l -11.6,0.211095 c -6.38,0.116102 -11.748975,0.103123 -11.931058,-0.02883 C 99.293834,74.463468 86.914477,61.240738 75.629831,49.095262 l -2.183123,-2.349659 24.824233,-0.0839 24.824229,-0.0839 13.9636,14.179292 c 7.67998,7.798608 13.83548,14.292653 13.67889,14.431204 -0.15659,0.13855 -3.38071,2.892128 -7.16471,6.119059 -3.784,3.226931 -9.94,8.513187 -13.68,11.747232 l -6.8,5.880077 z M 59.037892,78.217676 45.062831,67.739893 59.037892,57.258956 73.012954,46.778015 l 0.08434,10.563168 c 0.04639,5.809741 0.04639,15.241165 0,20.95872 l -0.08434,10.395555 z"
       style="fill:#589683;stroke-width:0.31999999" />
    <path
       id="path4584"
       d="m 45.012954,140.17696 v -26.24083 l 1.2,-1.0687 c 0.66,-0.58779 6.996,-6.20459 14.08,-12.48178 l 12.88,-11.413075 v 22.739475 22.73948 l -13.947469,15.98313 c -7.671106,8.79072 -14.007106,15.98313 -14.079999,15.98313 -0.07289,0 -0.132532,-11.80837 -0.132532,-26.24083 z m 28.663555,-6.11728 c 0.121728,-0.19696 4.126227,-4.70165 8.898887,-10.01041 4.772656,-5.30877 10.18462,-11.34126 12.026588,-13.40555 1.841965,-2.06428 3.440061,-3.71559 3.551319,-3.66958 0.111261,0.046 4.642947,5.05165 10.070407,11.12365 5.42747,6.072 10.93907,12.228 12.24801,13.68 l 2.37989,2.64 H 98.153396 c -18.136372,0 -24.639412,-0.0951 -24.476887,-0.35811 z M 123.09295,116.69272 V 99.249877 l 7.6,3.703523 c 4.18,2.03694 10.444,5.07971 13.92,6.7617 3.476,1.68199 6.31555,3.14019 6.31011,3.24043 -0.005,0.10025 -0.61744,0.63192 -1.36,1.1815 -0.74256,0.54958 -6.82211,5.16795 -13.51011,10.26304 -6.688,5.09508 -12.34,9.36992 -12.56,9.49964 -0.31799,0.1875 -0.4,-3.34026 -0.4,-17.20699 z m 0,-29.958401 V 74.528658 l -11.77522,0.08011 -11.775234,0.0801 -1.584771,-1.687446 C 97.0861,72.073324 91.254234,65.820332 84.99802,59.105884 l -11.374932,-12.20809 24.765034,-0.08197 24.765038,-0.08197 13.8099,13.96872 c 7.59544,7.682793 13.80989,14.066393 13.80989,14.185776 0,0.119382 -3.672,3.365251 -8.16,7.213043 -4.488,3.847792 -10.716,9.210573 -13.84,11.917286 l -5.68,4.9213 z M 59.037892,78.217676 45.062831,67.739893 59.037892,57.258956 73.012954,46.778015 l 0.08434,10.563168 c 0.04639,5.809741 0.04639,15.241165 0,20.95872 l -0.08434,10.395555 z"
       style="fill:#449a80;stroke-width:0.31999999" />
    <path
       id="path4582"
       d="m 45.012954,140.24186 v -26.32362 l 1.18235,-1.03022 c 0.650293,-0.56663 6.906687,-6.10623 13.9031,-12.31023 6.996409,-6.203996 12.800352,-11.279996 12.897648,-11.279996 0.0973,0 0.176902,10.157472 0.176902,22.572156 v 22.57216 l -13.160256,15.10784 c -7.23814,8.30932 -13.57414,15.53708 -14.08,16.06169 l -0.919744,0.95385 z m 28.66383,-6.18262 c 0.121879,-0.19721 4.774378,-5.42007 10.338884,-11.60636 5.564508,-6.18629 10.973228,-12.21963 12.019382,-13.40741 1.046154,-1.18779 1.993606,-2.12093 2.10545,-2.07364 0.111846,0.0473 5.21623,5.70196 11.34308,12.56596 6.12685,6.864 11.65262,13.02 12.27949,13.68 l 1.13977,1.2 H 98.179012 c -18.173456,0 -24.665117,-0.095 -24.502228,-0.35855 z M 123.09295,116.69272 V 99.249877 l 7.6,3.703523 c 4.18,2.03694 10.444,5.07971 13.92,6.7617 3.476,1.68199 6.31555,3.14019 6.31011,3.24043 -0.005,0.10025 -0.61744,0.6296 -1.36,1.17633 -0.74256,0.54674 -6.82211,5.16375 -13.51011,10.26003 -6.688,5.09628 -12.34,9.37344 -12.56,9.50482 -0.31802,0.18991 -0.4,-3.33566 -0.4,-17.20399 z m 0,-29.783633 V 74.897794 h 13.984 c 7.6912,0 13.8472,0.122074 13.68,0.271277 -0.1672,0.149203 -3.256,2.785625 -6.864,5.85872 -3.608,3.073094 -9.764,8.356099 -13.68,11.740016 l -7.12,6.152573 z M 59.065258,78.15716 45.117562,67.696741 59.065258,57.237906 73.012954,46.779074 l 0.08434,10.562637 c 0.04639,5.809449 0.04639,15.223113 0,20.919254 l -0.08434,10.356615 z m 36.650794,-7.579366 c -2.15448,-2.288 -8.009335,-8.552 -13.010791,-13.92 l -9.093558,-9.76 24.770336,-0.08197 24.770341,-0.08197 13.68699,13.841971 13.687,13.841968 -3.07671,0.07698 c -1.69219,0.04234 -13.14313,0.114343 -25.44654,0.16 l -22.369836,0.08302 z"
       style="fill:#4e897a;stroke-width:0.31999999" />
    <path
       id="path4580"
       d="m 45.012954,140.26862 v -26.29686 l 13.902925,-12.33698 c 7.646608,-6.785344 13.982608,-12.336986 14.08,-12.336986 0.09739,0 0.177075,10.157472 0.177075,22.572156 v 22.57216 l -13.160256,15.10784 c -7.23814,8.30932 -13.57414,15.53708 -14.08,16.06169 l -0.919744,0.95385 z m 29.013309,-6.60951 c 1.331565,-1.72193 23.8276,-26.60132 24.053011,-26.60132 0.134704,0 5.262216,5.616 11.394476,12.48 6.13225,6.864 11.66245,13.02 12.28932,13.68 l 1.13977,1.2 H 98.171207 73.439575 Z M 123.09295,116.72968 V 99.283506 l 13.92,6.760344 c 7.656,3.71818 13.9111,6.8354 13.90022,6.92714 -0.0178,0.14991 -25.60556,19.70509 -27.17192,20.76583 l -0.6483,0.43903 z m 0,-29.823128 V 74.897794 h 13.93195 13.93195 l -6.04434,5.2 c -3.32438,2.86 -9.59376,8.263939 -13.93195,12.008758 l -7.88761,6.808756 z M 59.065258,78.15716 45.117562,67.696741 59.065258,57.237906 73.012954,46.779074 l 0.08434,10.562637 c 0.04639,5.809449 0.04639,15.223113 0,20.919254 L 73.012954,88.61758 Z M 92.952896,67.617794 c -3.577804,-3.828 -9.432204,-10.092 -13.009772,-13.92 l -6.504672,-6.96 24.907251,0.03716 24.907247,0.03716 13.73662,13.882838 13.73662,13.882838 h -25.6341 -25.634093 z"
       style="fill:#457d72;stroke-width:0.31999999" />
    <path
       id="path4578"
       d="m 45.012954,140.26862 v -26.29686 l 13.902925,-12.33698 c 7.646608,-6.785344 13.982608,-12.336986 14.08,-12.336986 0.09739,0 0.177075,10.157472 0.177075,22.572156 v 22.57216 l -13.160256,15.10784 c -7.23814,8.30932 -13.57414,15.53708 -14.08,16.06169 l -0.919744,0.95385 z m 28.873011,-6.41083 c 6.757632,-7.68845 24.007559,-26.8 24.189459,-26.8 0.13682,0 5.266066,5.616 11.398326,12.48 6.13225,6.864 11.66245,13.02 12.28932,13.68 l 1.13977,1.2 H 98.148301 c -23.549923,0 -24.730589,-0.0273 -24.262336,-0.56 z M 123.09295,116.69404 V 99.252517 l 11.44,5.616753 c 6.292,3.08921 12.55267,6.12454 13.9126,6.74517 1.35993,0.62063 2.3982,1.2488 2.30727,1.39593 -0.15918,0.25756 -26.44401,20.39575 -27.25987,20.88522 -0.31804,0.19081 -0.4,-3.33367 -0.4,-17.20155 z m 0,-29.772099 V 74.897794 h 13.76 c 7.568,0 13.76,0.05738 13.76,0.12751 0,0.07013 -4.14,3.700112 -9.2,8.066624 -5.06,4.366512 -11.252,9.719997 -13.76,11.896634 l -4.56,3.957523 z M 59.065258,78.15716 45.117562,67.696741 59.065258,57.237906 73.012954,46.779074 l 0.08434,10.562637 c 0.04639,5.809449 0.04639,15.223113 0,20.919254 L 73.012954,88.61758 Z M 92.952896,67.617794 c -3.577804,-3.828 -9.432204,-10.092 -13.009772,-13.92 l -6.504672,-6.96 h 24.74863 24.748628 l 13.91724,13.92 13.91725,13.92 H 125.1141 99.457997 Z"
       style="fill:#25947a;stroke-width:0.31999999" />
    <path
       id="path4576"
       d="m 45.012954,140.41395 v -26.14606 l 0.88,-0.93649 c 0.958704,-1.02024 26.253754,-23.437123 26.889978,-23.830329 0.305286,-0.188679 0.390022,4.658451 0.390022,22.310349 v 22.55139 L 59.69562,149.8303 c -7.412532,8.50712 -13.748532,15.75149 -14.079999,16.0986 -0.590455,0.61833 -0.602667,0.1013 -0.602667,-25.51495 z m 25.28,-8.03698 c 0,-0.0664 -0.252,-0.31844 -0.56,-0.56 -0.507539,-0.39803 -0.518858,-0.38672 -0.120819,0.12082 0.418038,0.53304 0.680819,0.70256 0.680819,0.43918 z m -3.52,-2.56 c 0,-0.0664 -0.252,-0.31844 -0.56,-0.56 -0.507539,-0.39803 -0.518858,-0.38672 -0.120819,0.12082 0.418038,0.53304 0.680819,0.70256 0.680819,0.43918 z m -3.52,-2.56 c 0,-0.0664 -0.252,-0.31844 -0.56,-0.56 -0.507539,-0.39803 -0.518858,-0.38672 -0.120819,0.12082 0.418038,0.53304 0.680819,0.70256 0.680819,0.43918 z m -3.52,-2.56 c 0,-0.0664 -0.252,-0.31844 -0.56,-0.56 -0.507539,-0.39803 -0.518858,-0.38672 -0.120819,0.12082 0.418038,0.53304 0.680819,0.70256 0.680819,0.43918 z m -1.28,-0.96 c 0,-0.0664 -0.252,-0.31844 -0.56,-0.56 -0.507539,-0.39803 -0.518858,-0.38672 -0.120819,0.12082 0.418038,0.53304 0.680819,0.70256 0.680819,0.43918 z m -2.24,-1.6 c 0,-0.0664 -0.252,-0.31844 -0.56,-0.56 -0.507538,-0.39803 -0.518856,-0.38672 -0.120818,0.12082 0.418037,0.53304 0.680818,0.70256 0.680818,0.43918 z m -1.28,-0.96 c 0,-0.0664 -0.252,-0.31844 -0.56,-0.56 -0.507538,-0.39803 -0.518856,-0.38672 -0.120818,0.12082 0.418038,0.53304 0.680818,0.70256 0.680818,0.43918 z m -3.52,-2.56 c 0,-0.0664 -0.252,-0.31844 -0.56,-0.56 -0.507538,-0.39803 -0.518856,-0.38672 -0.120818,0.12082 0.418038,0.53304 0.680818,0.70256 0.680818,0.43918 z m -3.52,-2.56 c 0,-0.0664 -0.252,-0.31844 -0.56,-0.56 -0.507538,-0.39803 -0.518856,-0.38672 -0.120818,0.12082 0.418038,0.53304 0.680818,0.70256 0.680818,0.43918 z m 26.13087,17.64082 c 0.353338,-0.396 3.147325,-3.528 6.208861,-6.96 3.061536,-3.432 5.648477,-6.312 5.748759,-6.4 0.100284,-0.088 2.751228,-3.04 5.890992,-6.56 3.139763,-3.52 5.816297,-6.52026 5.947856,-6.66726 0.20767,-0.23204 24.632658,26.67273 24.632658,27.13353 0,0.0956 -11.0411,0.17373 -24.535775,0.17373 H 73.381392 Z m 49.069126,-16.88167 c 0,-14.66811 0.0686,-17.309385 0.44702,-17.221788 0.24586,0.0569 6.51618,3.055458 13.93404,6.663458 l 13.48703,6.56 -1.05404,0.8858 c -1.04262,0.87619 -24.23582,18.58997 -25.93405,19.80709 l -0.88,0.63069 z m 0,-30.078326 v -11.84 h 13.76 c 7.568,0 13.76,0.05958 13.76,0.132406 0,0.07282 -1.404,1.332266 -3.12,2.798762 -1.716,1.466496 -7.83679,6.734912 -13.60175,11.707594 -5.76497,4.972681 -10.55297,9.041238 -10.64,9.041238 -0.087,0 -0.15825,-5.328 -0.15825,-11.84 z M 59.134829,78.219855 c -11.490075,-8.629447 -13.802736,-10.493363 -13.44,-10.832144 0.240969,-0.225053 6.522125,-4.964679 13.958125,-10.532496 l 13.52,-10.123311 V 67.69485 c 0,11.529619 -0.036,20.959571 -0.08,20.955453 -0.044,-0.0041 -6.325155,-4.697824 -13.958125,-10.430448 z M 87.051565,61.238274 c -6.841235,-7.336736 -12.626777,-13.600736 -12.856755,-13.92 -0.402832,-0.559219 0.474698,-0.58048 23.959181,-0.58048 23.168379,0 24.355819,0.02777 23.943659,0.56 -0.41112,0.530883 -0.40002,0.531472 0.21351,0.01131 0.63119,-0.535124 0.99083,-0.20496 14.55311,13.36 l 13.90593,13.90869 H 125.13019 99.490176 Z m 13.801385,12.05952 c 0.31856,-0.352 0.5072,-0.64 0.4192,-0.64 -0.088,0 -0.42064,0.288 -0.7392,0.64 -0.31855,0.352 -0.50719,0.64 -0.41919,0.64 0.088,0 0.42064,-0.288 0.73919,-0.64 z m 1.80082,-2.16 c 0.39804,-0.507539 0.38672,-0.518858 -0.12082,-0.120819 -0.308,0.241552 -0.56,0.493552 -0.56,0.56 0,0.263373 0.26278,0.09386 0.68082,-0.439181 z m 1.6,-1.92 c 0.39804,-0.507539 0.38672,-0.518858 -0.12082,-0.120819 -0.308,0.241552 -0.56,0.493552 -0.56,0.56 0,0.263373 0.26278,0.09386 0.68082,-0.439181 z m 2.67918,-3.28 c 0.31856,-0.352 0.5072,-0.64 0.4192,-0.64 -0.088,0 -0.42064,0.288 -0.7392,0.64 -0.31855,0.352 -0.50719,0.64 -0.41919,0.64 0.088,0 0.42064,-0.288 0.73919,-0.64 z m 1.6,-1.92 c 0.31856,-0.352 0.5072,-0.64 0.4192,-0.64 -0.088,0 -0.42064,0.288 -0.7392,0.64 -0.31855,0.352 -0.50719,0.64 -0.41919,0.64 0.088,0 0.42064,-0.288 0.73919,-0.64 z m 1.6,-1.92 c 0.31856,-0.352 0.5072,-0.64 0.4192,-0.64 -0.088,0 -0.42064,0.288 -0.7392,0.64 -0.31855,0.352 -0.50719,0.64 -0.41919,0.64 0.088,0 0.42064,-0.288 0.73919,-0.64 z m 1.6,-1.92 c 0.31856,-0.352 0.5072,-0.64 0.4192,-0.64 -0.088,0 -0.42064,0.288 -0.7392,0.64 -0.31855,0.352 -0.50719,0.64 -0.41919,0.64 0.088,0 0.42064,-0.288 0.73919,-0.64 z m 1.6,-1.92 c 0.31856,-0.352 0.5072,-0.64 0.4192,-0.64 -0.088,0 -0.42064,0.288 -0.7392,0.64 -0.31855,0.352 -0.50719,0.64 -0.41919,0.64 0.088,0 0.42064,-0.288 0.73919,-0.64 z m 1.6,-1.92 c 0.31856,-0.352 0.5072,-0.64 0.4192,-0.64 -0.088,0 -0.42064,0.288 -0.7392,0.64 -0.31855,0.352 -0.50719,0.64 -0.41919,0.64 0.088,0 0.42064,-0.288 0.73919,-0.64 z m 1.6,-1.92 c 0.31856,-0.352 0.5072,-0.64 0.4192,-0.64 -0.088,0 -0.42064,0.288 -0.7392,0.64 -0.31855,0.352 -0.50719,0.64 -0.41919,0.64 0.088,0 0.42064,-0.288 0.73919,-0.64 z m 1.48082,-1.84 c 0.39804,-0.507538 0.38672,-0.518856 -0.12082,-0.120818 -0.308,0.24155 -0.56,0.49355 -0.56,0.56 0,0.263371 0.26278,0.09386 0.68082,-0.439182 z"
       style="fill:#009075;stroke-width:0.31999999" />
    <path
       id="path4574"
       d="m 59.732954,124.61479 c -7.304,-5.35728 -13.568,-9.94907 -13.92,-10.20397 -0.618489,-0.44789 -0.586223,-0.51279 0.96,-1.931 0.88,-0.80715 2.249627,-2.01793 3.043615,-2.69063 l 1.443616,-1.22309 10.956385,5.1462 10.956384,5.14619 v 7.77965 c 0,4.27881 -0.036,7.76559 -0.08,7.74841 -0.044,-0.0172 -6.056,-4.41448 -13.36,-9.77176 z m 14.29087,9.083 c 0.353338,-0.396 3.147325,-3.528 6.208861,-6.96 3.061536,-3.432 5.646349,-6.312 5.744032,-6.4 0.09768,-0.088 2.026762,-2.21803 4.286842,-4.73341 2.260083,-2.51537 4.175613,-4.50703 4.256736,-4.42591 0.08112,0.0811 -1.333754,5.34315 -3.14417,11.69341 l -3.291667,11.54591 h -7.351533 -7.351533 z m 60.295906,-24.11638 -11.22678,-7.48636 v -1.30209 c 0,-0.95076 0.12062,-1.274177 0.44702,-1.198628 1.01215,0.234265 27.31869,13.241158 27.19351,13.445438 -0.0748,0.12209 -1.27249,1.07834 -2.6615,2.12499 l -2.52548,1.903 z M 123.09295,79.588965 v -4.691171 h 13.76 c 7.568,0 13.76,0.06321 13.76,0.140464 0,0.07725 -2.29101,2.090989 -5.09113,4.474963 l -5.09114,4.334499 -8.66886,0.216208 -8.66887,0.216208 z M 105.90286,67.137794 c 3.39799,-4.092 8.60531,-10.369027 11.57181,-13.948952 l 5.39364,-6.508952 5.5317,5.524931 5.53171,5.524931 -0.69938,0.869437 c -0.38466,0.478192 -3.72339,4.268739 -7.41939,8.42344 l -6.72,7.554003 -9.68413,6.4e-4 -9.684138,6.4e-4 6.178178,-7.44 z M 77.797607,51.312519 C 73.193498,46.39327 73.316324,46.737794 76.16665,46.737794 h 2.389987 l 1.30384,3.897652 c 0.717111,2.143709 1.262877,3.938615 1.212813,3.98868 -0.05007,0.05007 -1.524122,-1.440158 -3.275683,-3.311607 z"
       style="fill:#008d74;stroke-width:0.31999999" />
    <path
       id="path4572"
       d="m 59.732954,124.56719 c -7.304,-5.3311 -13.568,-9.89816 -13.92,-10.14903 -0.613333,-0.43711 -0.546665,-0.54283 1.6,-2.53723 1.232,-1.14461 2.468623,-2.16036 2.748052,-2.2572 0.425064,-0.14732 22.01157,9.68667 22.778223,10.37689 0.135453,0.12195 0.207453,3.38022 0.16,7.2406 l -0.08628,7.01887 z m 14.29087,9.1306 c 0.353338,-0.396 3.147325,-3.528 6.208861,-6.96 3.061536,-3.432 5.644739,-6.312 5.740455,-6.4 0.09571,-0.088 1.523772,-1.672 3.173462,-3.52 1.649693,-1.848 3.177978,-3.55433 3.396186,-3.79186 0.218211,-0.23752 -0.740551,3.57848 -2.130576,8.48 -1.390026,4.90153 -2.771623,9.81186 -3.070208,10.91186 l -0.54289,2 h -6.708861 -6.708861 z m 60.514006,-24.81037 c -10.52311,-6.98432 -11.4355,-7.66168 -11.44,-8.49309 -0.003,-0.61108 0.13979,-0.869979 0.44214,-0.799998 0.24586,0.0569 6.49663,3.055458 13.8906,6.663458 10.28419,5.01833 13.36615,6.65393 13.11407,6.95969 -0.33151,0.40209 -4.27745,3.2893 -4.46903,3.26994 -0.0565,-0.006 -5.24846,-3.4257 -11.53778,-7.6 z M 123.09295,79.267893 v -4.370099 h 13.83273 13.83273 l -0.79273,0.774413 c -0.436,0.425926 -2.59273,2.296256 -4.79273,4.156288 l -4,3.381878 -4,0.0048 c -2.2,0.0026 -6.268,0.09884 -9.04,0.213808 l -5.04,0.209034 V 79.267884 Z M 105.90286,67.137794 c 3.39799,-4.092 8.60525,-10.36895 11.57167,-13.948782 l 5.3935,-6.508782 5.05171,5.044312 c 4.32867,4.32233 4.99743,5.12009 4.67247,5.573764 -0.20859,0.2912 -3.74584,4.298211 -7.86056,8.90447 l -7.4813,8.375018 h -8.76284 -8.762828 z M 76.900039,50.368702 C 75.693936,49.102334 74.49777,47.767319 74.241895,47.402004 73.788512,46.754712 73.819917,46.737803 75.47481,46.738129 l 1.698144,3.2e-4 1.011933,2.959665 c 0.55656,1.627816 0.98856,2.962679 0.96,2.966364 -0.02858,0.0037 -1.038746,-1.029422 -2.244848,-2.295791 z"
       style="fill:#008972;stroke-width:0.31999999" />
    <path
       id="path4570"
       d="m 59.732954,124.61479 c -7.304,-5.35728 -13.568,-9.948 -13.92,-10.20159 -0.615785,-0.44364 -0.567356,-0.52802 1.28,-2.23041 1.205614,-1.11101 2.128444,-1.72012 2.48022,-1.63707 0.308122,0.0727 5.739076,2.55773 12.068788,5.52217 l 11.508566,5.3899 0.0112,6.48 c 0.0062,3.564 -0.0248,6.46594 -0.06879,6.44876 -0.044,-0.0172 -6.056,-4.41448 -13.36,-9.77176 z m 14.29087,9.083 c 0.353338,-0.396 3.147341,-3.528 6.208896,-6.96 3.061552,-3.432 6.236192,-6.96 7.054752,-7.84 0.81856,-0.88 1.866308,-2.032 2.328324,-2.56 0.462019,-0.528 0.773072,-0.744 0.691228,-0.48 -0.08184,0.264 -1.027088,3.576 -2.100544,7.36 -1.073456,3.784 -2.237238,7.852 -2.586182,9.04 l -0.634445,2.16 h -5.80223 -5.802231 z m 60.909126,-25.70168 c -10.65811,-7.13506 -12.82192,-8.726959 -11.42983,-8.408876 1.10699,0.252941 27.35374,13.251176 27.21484,13.477656 -0.24479,0.39912 -3.57385,2.7949 -3.85134,2.77164 -0.13952,-0.0117 -5.50967,-3.53988 -11.93367,-7.84042 z m -11.84,-29.23669 v -3.861626 h 13.76 c 7.568,0 13.76,0.06152 13.76,0.13671 0,0.07519 -1.8399,1.708797 -4.08868,3.630244 l -4.08868,3.493532 -9.67132,0.231383 -9.67132,0.231385 z M 105.90286,67.137794 c 3.39799,-4.092 8.60571,-10.369514 11.5727,-13.950028 l 5.39453,-6.510027 4.47822,4.478219 4.47822,4.478218 -8.41768,9.47181 -8.41769,9.471808 h -7.63324 -7.633238 z M 74.948368,48.273095 c -1.119849,-1.30448 -1.144627,-1.380816 -0.481123,-1.482394 0.384736,-0.0589 0.807261,0.0131 0.938941,0.16 0.323885,0.361321 1.000608,2.419921 0.846243,2.574284 -0.06788,0.06788 -0.654704,-0.495475 -1.304061,-1.25189 z"
       style="fill:#157b6b;stroke-width:0.31999999" />
    <path
       id="path4568"
       d="m 74.340314,133.37779 c 0.535098,-0.572 4.112765,-4.568 7.950371,-8.88 8.274211,-9.29704 8.244487,-9.26506 8.031267,-8.64 -0.09005,0.264 -1.042016,3.576 -2.115472,7.36 -1.073456,3.784 -2.237238,7.852 -2.586182,9.04 l -0.634445,2.16 h -5.809222 -5.809223 z m -14.92736,-9.07919 c -7.304,-5.35872 -13.496,-9.88039 -13.76,-10.04815 -0.389105,-0.24728 -0.11642,-0.63852 1.44,-2.0661 1.19126,-1.09265 2.132633,-1.71273 2.48022,-1.63371 0.308122,0.07 5.739076,2.55281 12.068788,5.51725 l 11.508566,5.3899 0.0112,6.32 c 0.0062,3.476 -0.09679,6.30739 -0.228787,6.29197 -0.132,-0.0154 -6.216,-4.41244 -13.52,-9.77116 z m 75.519996,-16.30249 c -10.60337,-7.09841 -12.44943,-8.442601 -11.62666,-8.465852 0.45456,-0.01284 27.30666,13.230082 27.30666,13.467112 0,0.28505 -3.40759,2.86754 -3.74626,2.83916 -0.13956,-0.0117 -5.50974,-3.53988 -11.93374,-7.84042 z m -11.84,-29.23669 v -3.861626 h 13.76 c 7.568,0 13.76,0.0511 13.76,0.113549 0,0.06245 -1.84073,1.69608 -4.09052,3.630288 l -4.09053,3.516736 -9.66947,0.231341 -9.66948,0.23134 z m -22.98666,-4.443933 c 0.0587,-0.144269 5.21572,-6.410586 11.46011,-13.925149 l 11.35345,-13.662842 4.45334,4.45334 4.45334,4.45334 -8.41768,9.47181 -8.41769,9.471808 h -7.49577 c -4.12267,0 -7.44777,-0.118038 -7.3891,-0.262307 z M 74.948368,48.273095 c -1.119849,-1.30448 -1.144627,-1.380816 -0.481123,-1.482394 0.384736,-0.0589 0.807261,0.0131 0.938941,0.16 0.323885,0.361321 1.000608,2.419921 0.846243,2.574284 -0.06788,0.06788 -0.654704,-0.495475 -1.304061,-1.25189 z"
       style="fill:#008570;stroke-width:0.31999999" />
    <path
       id="path4566"
       d="m 74.340826,133.37779 c 0.535382,-0.572 3.533942,-3.92 6.663469,-7.44 7.5208,-8.45917 6.946061,-7.87599 6.611312,-6.70838 -0.149543,0.52161 -1.173127,4.15238 -2.274631,8.06838 l -2.002736,7.12 H 78.352823 73.367408 Z M 59.412954,124.2986 c -7.304,-5.35872 -13.496,-9.88356 -13.76,-10.05521 -0.394429,-0.25645 -0.223286,-0.54135 0.96,-1.59811 0.792,-0.70731 1.656,-1.22745 1.92,-1.15587 0.264,0.0716 5.916,2.69194 12.56,5.82302 l 12.08,5.69288 v 5.54624 c 0,3.05044 -0.108,5.53363 -0.24,5.51821 -0.132,-0.0154 -6.216,-4.41244 -13.52,-9.77116 z m 77.759216,-15.99936 c -5.71957,-3.80521 -10.54322,-7.05402 -10.71922,-7.21959 -0.176,-0.16557 4.864,2.242 11.2,5.35016 6.336,3.10816 11.844,5.80409 12.24,5.99095 0.396,0.18687 0.72,0.44819 0.72,0.58071 0,0.2473 -2.54428,2.21632 -2.86382,2.21632 -0.0978,0 -4.85739,-3.11335 -10.57696,-6.91855 z M 123.09295,78.30868 v -3.410886 h 13.83111 c 13.61846,0 13.82141,0.0094 13.2,0.610886 -0.34711,0.335988 -1.99911,1.775284 -3.67111,3.198436 l -3.04,2.587552 -3.3884,0.0016 c -1.86362,9.6e-4 -6.43562,0.09646 -10.16,0.212448 l -6.7716,0.210854 z m -22.98666,-3.993193 c 0.0587,-0.144269 5.21502,-6.409747 11.45856,-13.923287 l 11.3519,-13.660976 3.76936,3.759531 c 2.07314,2.067742 3.73242,3.870314 3.68729,4.005716 -0.0451,0.135401 -4.0417,4.708881 -8.88126,10.163291 l -8.79919,9.917104 -6.34666,3.2e-4 c -3.49067,2.56e-4 -6.29867,-0.117574 -6.24,-0.261843 z"
       style="fill:#00826e;stroke-width:0.31999999" />
    <path
       id="path4564"
       d="m 74.495719,133.21493 c 0.59248,-0.66158 3.435478,-3.83533 6.317779,-7.05279 2.882298,-3.21746 5.295962,-5.79451 5.36369,-5.72678 0.06773,0.0677 -0.760944,3.24149 -1.841501,7.05279 l -1.96465,6.92964 H 77.894759 73.418484 Z M 59.412954,124.2986 c -7.304,-5.35872 -13.496,-9.88123 -13.76,-10.05003 -0.400001,-0.25576 -0.305828,-0.46723 0.565049,-1.26885 0.574776,-0.52906 1.222776,-0.96026 1.44,-0.95823 0.217223,0.002 6.010951,2.64285 12.874951,5.86849 l 12.48,5.86479 0.08793,5.17151 c 0.04836,2.84433 -0.02365,5.1589 -0.16,5.14348 -0.136358,-0.0154 -6.223926,-4.41244 -13.527926,-9.77116 z m 79.782506,-15.26189 c -4.78362,-3.2004 -8.95962,-5.99339 -9.28,-6.20662 -0.32038,-0.21325 2.51349,1.09792 6.29749,2.91371 7.32366,3.51432 14.1374,6.891 14.39796,7.1352 0.20561,0.1927 -1.9797,2.00541 -2.39796,1.9891 -0.176,-0.007 -4.23387,-2.63098 -9.01749,-5.83139 z M 123.09295,77.937794 v -3.04 h 13.76 c 7.568,0 13.76,0.05091 13.76,0.113142 0,0.06223 -1.40198,1.322231 -3.11553,2.8 l -3.11552,2.686858 -4.00448,0.208112 c -2.20245,0.114461 -6.99247,0.222461 -10.64447,0.24 l -6.64,0.03189 z m -22.98666,-3.622307 c 0.0587,-0.144269 5.21493,-6.409645 11.45837,-13.923056 l 11.35171,-13.660748 3.44966,3.438959 c 1.89731,1.891428 3.41304,3.535334 3.36829,3.653125 -0.0447,0.117792 -4.18537,4.835272 -9.20137,10.483288 l -9.12,10.26912 -5.70666,9.6e-4 c -3.13867,3.2e-4 -5.65867,-0.117229 -5.6,-0.261498 z"
       style="fill:#007e6c;stroke-width:0.31999999" />
    <path
       id="path4562"
       d="m 74.656832,133.04194 c 5.210554,-5.88504 9.883661,-11.04327 9.947149,-10.97978 0.04186,0.0419 -0.687968,2.803 -1.621846,6.13587 l -1.697959,6.05976 -3.931731,0.0901 -3.931731,0.0901 z M 59.412954,124.2986 c -7.304,-5.35872 -13.496,-9.87469 -13.76,-10.03549 -0.405682,-0.24711 -0.356136,-0.41381 0.32,-1.0767 l 0.8,-0.78433 13.12,6.17371 13.12,6.17371 0.08855,4.67415 c 0.04871,2.57078 -0.0233,4.66153 -0.16,4.64611 -0.136704,-0.0154 -6.224554,-4.41244 -13.528554,-9.77116 z m 82.317626,-14.33072 c -3.7413,-2.51249 -6.90234,-4.66814 -7.02453,-4.79033 -0.4875,-0.48749 15.37199,7.19446 15.9069,7.70493 0.16142,0.15403 -1.62289,1.70866 -1.92,1.67285 -0.088,-0.0106 -3.22106,-2.07496 -6.96237,-4.58745 z M 123.09295,77.66941 v -2.771616 h 13.76 c 7.568,0 13.76,0.05387 13.76,0.119706 0,0.06584 -1.28851,1.221712 -2.86336,2.568608 l -2.86337,2.448902 -10.89663,0.203011 -10.89664,0.203008 z m -22.98666,-3.353923 c 0.0587,-0.144269 5.21483,-6.409523 11.45815,-13.922784 l 11.35148,-13.660473 3.10925,3.097584 3.10925,3.097585 -2.46073,2.748766 c -1.3534,1.511821 -5.68747,6.383162 -9.63125,10.825197 l -7.17052,8.076432 h -4.93615 c -2.71488,0 -4.88815,-0.118038 -4.82948,-0.262307 z"
       style="fill:#007c6b;stroke-width:0.31999999" />
    <path
       id="path4560"
       d="m 74.495719,133.21719 c 0.59248,-0.66034 2.71847,-3.0391 4.724422,-5.28615 2.005952,-2.24705 3.687418,-4.04531 3.736592,-3.99613 0.04918,0.0492 -0.576147,2.42794 -1.3896,5.28614 l -1.479008,5.19674 h -3.334822 -3.334819 z m -15.054467,-8.88835 c -7.288439,-5.34452 -13.451666,-9.91727 -13.696062,-10.16167 -0.362793,-0.36279 -0.367987,-0.50353 -0.0283,-0.76677 0.301695,-0.23379 4.110386,1.41916 13.85606,6.01345 l 13.44,6.33587 0.08929,4.17404 c 0.04911,2.29572 -0.02288,4.16241 -0.16,4.14821 -0.13711,-0.0142 -6.212556,-4.39861 -13.500992,-9.74313 z m 84.368708,-13.73293 c -2.94964,-1.97859 -5.46964,-3.70747 -5.6,-3.84196 -0.13035,-0.13449 2.60748,1.17339 6.08408,2.90639 3.4766,1.73301 6.27671,3.28407 6.22247,3.4468 -0.0543,0.16273 -0.37874,0.4737 -0.7211,0.69104 -0.55002,0.34917 -1.24658,-0.0235 -5.98545,-3.20227 z M 123.09295,77.437676 v -2.539882 l 13.84,0.01331 13.84,0.01331 -1.28,1.140512 c -0.704,0.627283 -1.87374,1.631677 -2.59944,2.23199 l -1.31944,1.091482 -10.20056,0.167402 c -5.6103,0.09207 -10.66856,0.224624 -11.24056,0.294569 l -1.04,0.127168 V 77.43766 Z m -22.98666,-3.122189 c 0.0587,-0.144269 5.21553,-6.410371 11.45971,-13.924669 l 11.35305,-13.662358 2.69465,2.694655 2.69466,2.694654 -9.98871,11.230012 -9.98871,11.230013 h -4.16566 c -2.29111,0 -4.11766,-0.118038 -4.05899,-0.262307 z"
       style="fill:#007969;stroke-width:0.31999999" />
    <path
       id="path4558"
       d="m 74.334468,133.37779 c 0.910102,-0.97874 6.864588,-7.64698 7.0164,-7.85743 0.03865,-0.0536 -0.511236,1.92642 -1.221975,4.4 l -1.292256,4.49743 h -2.734614 -2.734615 z m -3.415181,-0.66348 c -0.97552,-0.73508 -6.73552,-4.97578 -12.8,-9.42376 -6.064484,-4.44799 -11.386333,-8.37485 -11.826333,-8.72635 -0.833343,-0.66574 0.395935,-0.10993 16.88,7.63221 l 10,4.69675 v 3.60232 c 0,1.98127 -0.108,3.59175 -0.24,3.57883 -0.132,-0.0129 -1.03815,-0.62491 -2.013667,-1.36 z m 75.449073,-21.16092 c -1.89454,-1.27497 -3.55054,-2.42846 -3.68,-2.56331 -0.22757,-0.23702 7.62071,3.60672 7.90555,3.87178 0.0775,0.0722 -0.0665,0.32883 -0.32,0.57042 -0.39427,0.37569 -0.9593,0.10387 -3.90555,-1.87889 z M 123.09295,77.028725 v -2.130931 l 13.84,0.01229 13.84,0.01229 -1.6,1.444378 c -2.78324,2.512531 -1.71439,2.32294 -14.48441,2.569244 l -11.59559,0.223668 z m -22.98666,-2.713238 c 0.0587,-0.144269 5.21544,-6.410253 11.4595,-13.92441 l 11.35283,-13.6621 2.20966,2.209655 c 2.02343,2.023434 2.17236,2.261932 1.76716,2.829966 -0.24337,0.341171 -4.89476,5.612812 -10.33643,11.714754 l -9.89393,11.094442 h -3.33273 c -1.833,0 -3.28473,-0.118038 -3.22606,-0.262307 z"
       style="fill:#007566;stroke-width:0.31999999" />
    <path
       id="path4556"
       d="m 75.46,132.15046 c 1.118125,-1.24704 2.490762,-2.79504 3.050304,-3.44 l 1.017351,-1.17267 -0.986234,3.44 -0.986233,3.44 h -2.064071 -2.064073 z m -4.367046,0.69107 c -0.88,-0.67052 -5.776,-4.27905 -10.88,-8.01897 -5.104,-3.73991 -9.496,-7.00602 -9.76,-7.25802 -0.50185,-0.47902 1.369338,0.36558 14.56,6.57203 l 8,3.76415 0.09159,3.09854 c 0.05038,1.70419 -0.02163,3.09018 -0.16,3.07996 -0.138371,-0.0102 -0.971587,-0.56718 -1.851587,-1.23769 z m 77.985056,-20.32104 c -1.63671,-1.15726 -1.63319,-1.26796 0.0149,-0.47057 0.836,0.40447 1.52,0.85071 1.52,0.99164 0,0.41321 -0.41085,0.27374 -1.53494,-0.52107 z M 123.09295,76.709308 v -1.811514 l 13.84,0.01018 13.84,0.01018 -1.76,1.579648 -1.76,1.579629 -2.90794,0.01018 c -1.59936,0.0056 -7.03536,0.105366 -12.08,0.221699 l -9.17206,0.211523 z m -22.98666,-2.393821 c 0.0587,-0.144269 5.21411,-6.40865 11.45654,-13.920842 l 11.34986,-13.658533 1.83001,1.810907 1.83,1.810907 -2.61987,2.936991 c -1.44093,1.615345 -6.29188,7.063434 -10.77988,12.106867 l -8.16,9.169879 -2.50666,0.0032 c -1.37867,0.0016 -2.45867,-0.114973 -2.4,-0.259242 z"
       style="fill:#007164;stroke-width:0.31999999" />
    <path
       id="path4554"
       d="m 75.118967,132.49779 c 0.918483,-1.056 1.705296,-1.92 1.74848,-1.92 0.04318,0 -0.152986,0.864 -0.435927,1.92 l -0.514441,1.92 H 74.68304 73.449002 Z m -10.546605,-4.48137 c -4.466326,-3.3175 -8.2756,-6.18682 -8.46505,-6.37627 -0.189449,-0.18945 3.572816,1.49035 8.360592,3.7329 l 8.70505,4.07735 v 2.3237 c 0,1.27803 -0.108,2.31254 -0.24,2.29891 -0.132,-0.0136 -3.894266,-2.73909 -8.360592,-6.05659 z M 123.09295,76.177794 v -1.28 l 13.84,0.01331 13.84,0.01331 -1.19361,1.055069 -1.19361,1.055069 -8.88639,0.210988 c -4.88751,0.116045 -10.57839,0.211271 -12.64639,0.211613 l -3.76,6.37e-4 z m -22.84384,-1.981222 c 0.14143,-0.230327 3.43115,-4.235972 7.31049,-8.901434 3.87934,-4.665459 8.91861,-10.75011 11.19838,-13.521446 l 4.14503,-5.038793 1.2101,1.181634 c 1.04735,1.022716 1.15149,1.248853 0.77426,1.681447 -0.23972,0.274898 -5.29263,5.971814 -11.22869,12.659814 l -10.79284,12.16 -1.43693,0.09878 c -1.11822,0.07687 -1.3799,0.0059 -1.1798,-0.32 z"
       style="fill:#006c60;stroke-width:0.31999999" />
    <path
       id="path4552"
       d="m 73.97473,133.77583 c 0.636685,-0.70352 0.985766,-0.62833 0.687798,0.14816 -0.104217,0.27159 -0.432326,0.4938 -0.729126,0.4938 -0.492451,0 -0.488838,-0.0561 0.04133,-0.64196 z m -7.173482,-4.17866 c -3.359561,-2.47535 -6.108294,-4.55863 -6.108294,-4.62952 0,-0.12449 2.289312,0.9115 9.2,4.16331 l 3.28,1.54339 v 1.71172 c 0,0.94145 -0.05927,1.71172 -0.131706,1.71172 -0.07244,0 -2.880438,-2.02528 -6.24,-4.50062 z M 123.09295,75.857794 v -0.96 h 13.83111 13.83111 l -0.67659,0.676592 c -0.65177,0.651773 -1.08576,0.686419 -11.83111,0.944496 -6.13498,0.147344 -12.05452,0.27488 -13.15452,0.283408 l -2,0.0155 z m -22.69179,-1.80281 c 0.27951,-0.328454 1.87209,-2.25319 3.53905,-4.27719 5.05206,-6.134122 18.59556,-22.543456 18.82156,-22.804238 0.11641,-0.134331 0.51908,0.08299 0.89481,0.482942 l 0.68315,0.72718 -11.6743,13.117057 c -6.42086,7.214384 -11.92138,13.169795 -12.22338,13.234249 -0.504754,0.107728 -0.508056,0.06897 -0.0409,-0.48 z"
       style="fill:#00695e;stroke-width:0.31999999" />
    <path
       id="path4550"
       d="m 68.885626,131.07888 c -2.270032,-1.67699 -4.209725,-3.13147 -4.310432,-3.23218 -0.100707,-0.10071 1.684592,0.69736 3.967328,1.77348 2.282739,1.07612 4.268922,2.0735 4.413741,2.21641 0.144822,0.1429 0.216822,0.71692 0.16,1.2756 l -0.103309,1.01577 z M 123.09295,75.559839 c 0,-0.659178 0.0599,-0.662045 13.824,-0.662045 15.41396,0 18.40879,0.477024 4.896,0.779846 -4.576,0.102551 -10.66,0.266957 -13.52,0.365351 -5.10203,0.175526 -5.2,0.166422 -5.2,-0.483152 z m -9.12,-17.942045 c 0.31856,-0.352 0.6512,-0.64 0.7392,-0.64 0.088,0 -0.10064,0.288 -0.4192,0.64 -0.31855,0.352 -0.65119,0.64 -0.73919,0.64 -0.088,0 0.10064,-0.288 0.41919,-0.64 z m 4.23016,-5.04 c 1.7288,-2.068 3.52742,-4.228547 3.99693,-4.801215 0.4695,-0.572669 0.9337,-0.911673 1.03156,-0.753342 0.15493,0.250693 -7.65994,9.314557 -8.03102,9.314557 -0.0774,0 1.27372,-1.692 3.00253,-3.76 z"
       style="fill:#00645b;stroke-width:0.31999999" />
  </g>
  <g
     transform="translate(-10.619217,-1.3274035)"
     id="g4542">
    <path
       id="path4546"
       d="m 283.86935,98.183083 0.24215,-33.443187 17.52884,0.02448 c 20.09679,0.02807 25.18738,1.11192 29.7777,6.340004 7.16627,8.161937 5.94373,26.352282 -2.20172,32.75949 -4.45712,3.50598 -10.7947,4.69812 -24.97571,4.69812 h -13.20983 v 11.53214 11.53213 h -3.70179 -3.70179 z m 38.17585,2.480067 c 4.56597,-3.412096 6.05445,-6.283881 6.56708,-12.670106 0.39597,-4.932955 0.12667,-6.767773 -1.48065,-10.088045 -3.0503,-6.301082 -5.74763,-7.168393 -22.29359,-7.168393 h -13.80726 v 16.227786 16.227788 l 14.23451,-0.31344 c 12.6508,-0.27857 14.51772,-0.52508 16.77991,-2.21559 z m 28.42198,29.34862 c 0.28392,-0.88797 5.22434,-15.72983 10.97871,-32.981901 l 10.46249,-31.367402 8.22681,-0.262001 8.2268,-0.262002 10.84021,32.566189 c 5.96211,17.911407 10.8402,32.896227 10.8402,33.299587 0,0.40338 -1.5408,0.60456 -3.424,0.44708 l -3.42399,-0.28634 -10.00859,-30.7298 -10.00859,-30.7298 -2.94304,0.28497 -2.94305,0.28497 -10.10829,30.67547 -10.1083,30.67548 h -3.56179 c -2.97379,0 -3.47657,-0.26653 -3.04558,-1.6145 z m 82.85863,-31.828687 0.24215,-33.443187 17.52884,0.05102 c 10.91538,0.03177 18.99235,0.47602 21.40782,1.177478 8.49351,2.466526 13.13754,9.356561 13.16317,19.529345 0.0208,8.252878 -1.4317,12.745029 -5.40609,16.719431 -5.01311,5.0131 -10.58882,6.34483 -26.56463,6.34483 h -13.20983 v 11.53214 11.53213 h -3.70179 -3.7018 z m 38.31778,2.557227 c 6.19358,-3.745329 8.85189,-16.275357 4.98326,-23.48882 -3.00696,-5.60682 -6.0812,-6.514884 -22.05602,-6.514884 h -14.08359 v 16.227786 16.227788 l 14.0692,-0.31344 c 12.0318,-0.26806 14.50624,-0.57773 17.08715,-2.13843 z m 38.95902,-2.843561 V 64.167228 l 3.45964,0.286335 3.45964,0.286333 0.24215,33.443187 0.24216,33.443187 h -3.7018 -3.70179 z m 36.90283,0.05569 V 64.278611 h 23.06427 23.06427 v 3.228997 3.228998 h -19.37399 -19.37398 v 11.993418 11.993419 h 16.14498 16.14499 v 2.767712 2.767715 h -16.14499 -16.14498 v 12.91599 12.91599 h 19.37398 19.37399 v 2.76771 2.76771 h -23.06427 -23.06427 z m 72.17966,0.230643 0.24214,-33.443187 17.52885,0.05102 c 19.84207,0.05775 23.75566,0.801129 28.95713,5.500346 3.84493,3.473667 5.63927,8.082236 5.63927,14.483916 0,8.429083 -3.5924,14.66836 -10.21127,17.734923 l -4.39814,2.03769 4.81828,8.23446 c 2.65004,4.52895 6.17521,10.62161 7.83369,13.53924 l 3.01543,5.30478 h -4.06739 -4.06739 l -7.30181,-12.88624 -7.30181,-12.88624 -11.76278,-0.0298 -11.76278,-0.0297 v 12.91599 12.91599 h -3.70178 -3.7018 z m 38.62304,-0.940961 c 8.55026,-5.711946 8.46206,-20.200448 -0.1511,-24.819735 -2.65104,-1.421768 -5.34897,-1.685781 -17.22692,-1.685781 h -14.0836 V 85.03645 99.336295 h 14.16342 c 13.18912,0 14.37905,-0.144058 17.2982,-2.094174 z"
       style="fill:#009176;stroke-width:0.92257071" />
    <path
       id="path4544"
       d="M 284.57278,98.345724 V 65.065178 l 18.71127,0.298645 c 17.93086,0.286188 18.90094,0.396349 23.25876,2.641222 6.3493,3.270756 9.1919,8.822797 9.1542,17.879551 -0.0337,8.107382 -1.40482,12.293109 -5.24371,16.008524 -5.146,4.98047 -8.82597,5.93518 -24.89203,6.45787 l -14.53049,0.47273 v 11.40128 11.40127 h -3.229 -3.229 z m 36.92717,2.823296 c 4.96876,-2.534873 7.35666,-7.38632 7.35479,-14.942603 -0.002,-7.103297 -2.01589,-11.493886 -6.45656,-14.074571 -2.78092,-1.616131 -5.1813,-1.92002 -17.2982,-2.189968 l -14.0692,-0.313443 v 16.689072 16.689073 h 13.41403 c 11.62327,0 13.90011,-0.24798 17.05514,-1.85756 z M 434.02924,98.333105 V 65.039941 l 19.14334,0.32335 c 17.64076,0.29797 19.44501,0.483693 22.98658,2.36616 2.11378,1.123547 4.68379,3.223272 5.71115,4.666058 6.14619,8.631543 4.27001,25.655885 -3.45086,31.312701 -4.42424,3.24149 -8.75209,4.09342 -23.40172,4.60655 l -14.53049,0.50896 v 11.40128 11.40127 h -3.229 -3.229 z m 38.53125,2.083675 c 4.35953,-3.109456 6.07026,-7.00451 6.14733,-13.996473 0.0784,-7.113526 -1.98448,-11.387769 -6.88582,-14.2672 -2.75691,-1.619618 -5.13066,-1.920881 -17.26556,-2.191229 l -14.0692,-0.313443 v 16.752556 16.752559 l 14.53049,-0.29413 c 13.48574,-0.27298 14.74707,-0.44861 17.54276,-2.44264 z m 38.04212,-2.003055 V 65.201182 h 3.229 3.229 v 33.212543 33.212545 h -3.229 -3.229 z m 36.90283,0 V 65.201182 h 23.06427 23.06427 v 2.288078 2.28808 l -19.60463,0.24899 -19.60463,0.24899 v 12.454704 12.454704 l 16.37563,0.25193 16.37563,0.251931 v 2.285138 2.285143 h -16.60627 -16.60627 v 12.91599 12.91599 h 19.83527 19.83527 v 2.76771 2.76771 h -23.06427 -23.06427 z m 72.88309,-0.08062 V 65.039938 l 19.14334,0.32335 c 17.40573,0.294 19.47831,0.501759 22.83363,2.288877 4.39987,2.343467 6.41576,4.433506 7.87077,8.160265 1.44224,3.694056 1.48498,13.019429 0.079,17.235651 -1.13743,3.410885 -7.41345,9.966179 -9.56691,9.992619 -3.98587,0.049 -3.59502,1.62404 3.38096,13.62474 9.1363,15.71711 8.907,14.9665 4.56226,14.93517 l -3.55834,-0.0256 -7.40239,-13.12098 -7.40239,-13.12097 -11.74095,-0.25821 -11.74096,-0.25821 v 13.40484 13.40484 h -3.22899 -3.229 V 98.333105 Z m 37.8254,-0.412049 c 4.26295,-2.477403 6.45562,-7.012155 6.45311,-13.34589 -0.003,-6.046841 -2.19714,-10.219021 -6.64296,-12.628148 -2.44414,-1.324448 -5.79365,-1.710675 -17.10835,-1.97273 l -14.06921,-0.32585 v 15.388016 15.388016 l 14.06921,-0.31345 c 12.11689,-0.269941 14.51728,-0.57383 17.2982,-2.189961 z"
       style="fill:#060606;stroke-width:0.92257071" />
  </g>
</svg>
