<?xml version="1.0" encoding="UTF-8" standalone="no"?>
<svg
   xmlns:dc="http://purl.org/dc/elements/1.1/"
   xmlns:cc="http://creativecommons.org/ns#"
   xmlns:rdf="http://www.w3.org/1999/02/22-rdf-syntax-ns#"
   xmlns:svg="http://www.w3.org/2000/svg"
   xmlns="http://www.w3.org/2000/svg"
   height="215.10001"
   width="184.5"
   xml:space="preserve"
   viewBox="0 0 184.5 215.10001"
   y="0px"
   x="0px"
   id="Capa_1"
   version="1.1"><metadata
   id="metadata300"><rdf:RDF><cc:Work
       rdf:about=""><dc:format>image/svg+xml</dc:format><dc:type
         rdf:resource="http://purl.org/dc/dcmitype/StillImage" /><dc:title></dc:title></cc:Work></rdf:RDF></metadata><defs
   id="defs298" />
<style
   id="style10"
   type="text/css">
	.st0{fill:url(#SVGID_1_);}
	.st1{fill:url(#SVGID_2_);}
	.st2{fill:url(#SVGID_3_);}
	.st3{fill:url(#SVGID_4_);}
	.st4{fill:url(#SVGID_5_);}
	.st5{fill:url(#SVGID_6_);}
	.st6{fill:#009277;}
	.st7{fill:url(#SVGID_7_);}
	.st8{fill:url(#SVGID_8_);}
	.st9{fill:url(#SVGID_9_);}
	.st10{fill:url(#SVGID_10_);}
	.st11{fill:url(#SVGID_11_);}
	.st12{fill:url(#SVGID_12_);}
	.st13{fill:url(#SVGID_13_);}
	.st14{fill:#004846;}
	.st15{fill:#58167D;}
	.st16{fill:#E6B54A;}
	.st17{fill:#BF0811;}
	.st18{fill:#336535;}
	.st19{fill:#009BDB;}
	.st20{fill:#FFFFFF;}
	.st21{font-family:'MyriadPro-Regular';}
	.st22{font-size:22.2px;}
</style>

<linearGradient
   y2="159.9334"
   x2="109.0345"
   y1="67.633904"
   x1="55.7453"
   gradientUnits="userSpaceOnUse"
   id="SVGID_1_">
	<stop
   id="stop14"
   style="stop-color:#75AD7A"
   offset="9.452736e-02" />
	<stop
   id="stop16"
   style="stop-color:#70AC7A"
   offset="0.194" />
	<stop
   id="stop18"
   style="stop-color:#60A679"
   offset="0.3217" />
	<stop
   id="stop20"
   style="stop-color:#3D9C78"
   offset="0.4642" />
	<stop
   id="stop22"
   style="stop-color:#009277"
   offset="0.5672" />
	<stop
   id="stop24"
   style="stop-color:#004846"
   offset="1" />
</linearGradient>


<linearGradient
   y2="328.93909"
   x2="214.63181"
   y1="347.51859"
   x1="280.04141"
   gradientUnits="userSpaceOnUse"
   id="SVGID_8_">
	<stop
   id="stop77"
   style="stop-color:#009277"
   offset="0.4328" />
	<stop
   id="stop79"
   style="stop-color:#004846"
   offset="0.9602" />
</linearGradient>
<polygon
   transform="translate(-167.2,-235.6)"
   style="fill:url(#SVGID_8_)"
   id="polygon82"
   points="293.4,355.8 225.4,355.8 259.4,317.8 "
   class="st8" />
<linearGradient
   y2="304.48489"
   x2="320.93539"
   y1="336.61029"
   x1="299.52731"
   gradientUnits="userSpaceOnUse"
   id="SVGID_9_">
	<stop
   id="stop84"
   style="stop-color:#009277"
   offset="0.4328" />
	<stop
   id="stop86"
   style="stop-color:#004846"
   offset="0.9602" />
</linearGradient>
<polygon
   transform="translate(-167.2,-235.6)"
   style="fill:url(#SVGID_9_)"
   id="polygon89"
   points="293.4,307.5 293.4,355.8 332,326.3 "
   class="st9" />
<linearGradient
   y2="265.56"
   x2="312.14069"
   y1="304.15671"
   x1="312.94199"
   gradientUnits="userSpaceOnUse"
   id="SVGID_10_">
	<stop
   id="stop91"
   style="stop-color:#009277"
   offset="0.4328" />
	<stop
   id="stop93"
   style="stop-color:#004846"
   offset="0.9602" />
</linearGradient>
<polygon
   transform="translate(-167.2,-235.6)"
   style="fill:url(#SVGID_10_)"
   id="polygon96"
   points="293.4,274.2 293.4,307.5 332,274.2 "
   class="st10" />
<linearGradient
   y2="242.87981"
   x2="263.86139"
   y1="289.8678"
   x1="316.65381"
   gradientUnits="userSpaceOnUse"
   id="SVGID_11_">
	<stop
   id="stop98"
   style="stop-color:#009277"
   offset="0.4328" />
	<stop
   id="stop100"
   style="stop-color:#004846"
   offset="0.9602" />
</linearGradient>
<polygon
   transform="translate(-167.2,-235.6)"
   style="fill:url(#SVGID_11_)"
   id="polygon103"
   points="261.3,274.2 332,274.2 293.4,235.6 "
   class="st11" />
<linearGradient
   y2="268.0744"
   x2="204.47479"
   y1="246.20039"
   x1="268.8175"
   gradientUnits="userSpaceOnUse"
   id="SVGID_12_">
	<stop
   id="stop105"
   style="stop-color:#009277"
   offset="0.4328" />
	<stop
   id="stop107"
   style="stop-color:#004846"
   offset="0.9602" />
</linearGradient>
<polygon
   transform="translate(-167.2,-235.6)"
   style="fill:url(#SVGID_12_)"
   id="polygon110"
   points="293.4,235.6 261.3,274.2 225.4,235.6 "
   class="st12" />
<polygon
   transform="translate(-167.2,-235.6)"
   style="fill:#009277"
   id="polygon112"
   points="225.4,293.5 225.4,235.6 186.8,264.5 "
   class="st6" />
<linearGradient
   y2="355.58691"
   x2="199.5575"
   y1="305.34119"
   x1="223.1824"
   gradientUnits="userSpaceOnUse"
   id="SVGID_13_">
	<stop
   id="stop114"
   style="stop-color:#009277"
   offset="0.4328" />
	<stop
   id="stop116"
   style="stop-color:#004846"
   offset="0.9602" />
</linearGradient>
<polygon
   transform="translate(-167.2,-235.6)"
   style="fill:url(#SVGID_13_)"
   id="polygon119"
   points="225.4,355.8 225.4,293.5 186.8,327.7 "
   class="st13" />
<polygon
   transform="translate(-167.2,-235.6)"
   style="fill:#009277"
   id="polygon121"
   points="186.8,327.7 225.4,355.8 186.8,400.1 "
   class="st6" />

<path
   id="path125"
   d="M 13.4,204.1 H 3.3 v 11 H 0 v -31.7 h 13.3 c 3.9,0 6.7,0.8 8.6,2.5 1.8,1.6 2.8,4.2 2.8,7.6 0.1,7 -3.7,10.6 -11.3,10.6 z m -10,-2.5 h 10.1 c 5.3,0 8,-2.7 8,-8.1 0,-2.6 -0.6,-4.5 -1.9,-5.7 -1.3,-1.2 -3.3,-1.8 -6.1,-1.8 H 3.4 Z" />
<path
   style="fill:#009277"
   id="path127"
   d="m 53.1,203.8 -5.9,-17.9 h -2.8 l -5.9,17.9 -0.8,2.5 -2.9,8.7 H 31.5 L 42,183.4 h 7.6 L 60,215 h -3.2 l -2.9,-8.7"
   class="st6" />
<path
   id="path129"
   d="M 84.4,204.1 H 74.3 v 11 H 71 v -31.7 h 13.3 c 3.9,0 6.7,0.8 8.6,2.5 1.8,1.6 2.8,4.2 2.8,7.6 0.1,7 -3.7,10.6 -11.3,10.6 z m -10,-2.5 h 10.1 c 5.3,0 8,-2.7 8,-8.1 0,-2.6 -0.6,-4.5 -1.9,-5.7 -1.3,-1.2 -3.3,-1.8 -6.1,-1.8 H 74.4 Z" />
<path
   id="path131"
   d="m 107.5,215.1 v -31.7 h 3.3 V 215 h -3.3 z" />
<path
   id="path133"
   d="M 125.1,215.1 V 183.4 H 147 v 2.5 h -18.6 v 11.7 h 15.4 v 2.5 h -15.5 v 12.3 h 18.6 v 2.5 h -21.8 z" />
<path
   id="path135"
   d="m 162.6,202.6 v 12.5 h -3.3 v -31.7 h 13.4 c 3.8,0 6.7,0.8 8.5,2.3 1.9,1.5 2.8,3.9 2.8,7.1 0,5.1 -2.3,8.1 -7,9.2 l 7.5,13 h -3.6 l -7.2,-12.5 h -11.1 z m 18.1,-9.7 c 0,-2.4 -0.6,-4.1 -1.9,-5.2 -1.3,-1.1 -3.3,-1.7 -6,-1.7 h -10.1 v 14.2 h 10.1 c 5.2,-0.1 7.9,-2.5 7.9,-7.3 z" />
















</svg>