<?xml version="1.0" encoding="UTF-8" standalone="no"?>
<svg
   xmlns:dc="http://purl.org/dc/elements/1.1/"
   xmlns:cc="http://creativecommons.org/ns#"
   xmlns:rdf="http://www.w3.org/1999/02/22-rdf-syntax-ns#"
   xmlns:svg="http://www.w3.org/2000/svg"
   xmlns="http://www.w3.org/2000/svg"
   version="1.1"
   id="Capa_1"
   x="0px"
   y="0px"
   viewBox="0 0 207.03741 237.63706"
   xml:space="preserve"
   width="207.03741"
   height="237.63705"><metadata
   id="metadata300"><rdf:RDF><cc:Work
       rdf:about=""><dc:format>image/svg+xml</dc:format><dc:type
         rdf:resource="http://purl.org/dc/dcmitype/StillImage" /><dc:title></dc:title></cc:Work></rdf:RDF></metadata><defs
   id="defs298"><linearGradient
     id="linearGradient125"
     gradientUnits="userSpaceOnUse"
     x1="223.1824"
     y1="305.34119"
     x2="199.5575"
     y2="355.58691"><stop
       offset="0.4328"
       style="stop-color:#009277"
       id="stop114-3" /><stop
       offset="0.9602"
       style="stop-color:#004846"
       id="stop116-6" /></linearGradient><linearGradient
     id="linearGradient129"
     gradientUnits="userSpaceOnUse"
     x1="268.8175"
     y1="246.20039"
     x2="204.47479"
     y2="268.0744"><stop
       offset="0.4328"
       style="stop-color:#009277"
       id="stop105-7" /><stop
       offset="0.9602"
       style="stop-color:#004846"
       id="stop107-5" /></linearGradient><linearGradient
     id="linearGradient133"
     gradientUnits="userSpaceOnUse"
     x1="316.65381"
     y1="289.8678"
     x2="263.86139"
     y2="242.87981"><stop
       offset="0.4328"
       style="stop-color:#009277"
       id="stop98-3" /><stop
       offset="0.9602"
       style="stop-color:#004846"
       id="stop100-5" /></linearGradient><linearGradient
     id="linearGradient137"
     gradientUnits="userSpaceOnUse"
     x1="312.94199"
     y1="304.15671"
     x2="312.14069"
     y2="265.56"><stop
       offset="0.4328"
       style="stop-color:#009277"
       id="stop91-6" /><stop
       offset="0.9602"
       style="stop-color:#004846"
       id="stop93-2" /></linearGradient><linearGradient
     id="linearGradient141"
     gradientUnits="userSpaceOnUse"
     x1="299.52731"
     y1="336.61029"
     x2="320.93539"
     y2="304.48489"><stop
       offset="0.4328"
       style="stop-color:#009277"
       id="stop84-9" /><stop
       offset="0.9602"
       style="stop-color:#004846"
       id="stop86-1" /></linearGradient><linearGradient
     id="linearGradient145"
     gradientUnits="userSpaceOnUse"
     x1="280.04141"
     y1="347.51859"
     x2="214.63181"
     y2="328.93909"><stop
       offset="0.4328"
       style="stop-color:#009277"
       id="stop77-2" /><stop
       offset="0.9602"
       style="stop-color:#004846"
       id="stop79-7" /></linearGradient><filter
     height="1.1047767"
     y="-0.052388329"
     width="1.122154"
     x="-0.061077014"
     id="filter1539"
     style="color-interpolation-filters:sRGB"><feGaussianBlur
       id="feGaussianBlur1541"
       stdDeviation="4.6952954" /></filter></defs>
<style
   type="text/css"
   id="style10">
	.st0{fill:url(#SVGID_1_);}
	.st1{fill:url(#SVGID_2_);}
	.st2{fill:url(#SVGID_3_);}
	.st3{fill:url(#SVGID_4_);}
	.st4{fill:url(#SVGID_5_);}
	.st5{fill:url(#SVGID_6_);}
	.st6{fill:#009277;}
	.st7{fill:url(#SVGID_7_);}
	.st8{fill:url(#SVGID_8_);}
	.st9{fill:url(#SVGID_9_);}
	.st10{fill:url(#SVGID_10_);}
	.st11{fill:url(#SVGID_11_);}
	.st12{fill:url(#SVGID_12_);}
	.st13{fill:url(#SVGID_13_);}
	.st14{fill:#004846;}
	.st15{fill:#58167D;}
	.st16{fill:#E6B54A;}
	.st17{fill:#BF0811;}
	.st18{fill:#336535;}
	.st19{fill:#009BDB;}
	.st20{fill:#FFFFFF;}
	.st21{font-family:'MyriadPro-Regular';}
	.st22{font-size:22.2px;}
</style>

<linearGradient
   id="SVGID_1_"
   gradientUnits="userSpaceOnUse"
   x1="55.7453"
   y1="67.633904"
   x2="109.0345"
   y2="159.9334">
	<stop
   offset="9.452736e-02"
   style="stop-color:#75AD7A"
   id="stop14" />
	<stop
   offset="0.194"
   style="stop-color:#70AC7A"
   id="stop16" />
	<stop
   offset="0.3217"
   style="stop-color:#60A679"
   id="stop18" />
	<stop
   offset="0.4642"
   style="stop-color:#3D9C78"
   id="stop20" />
	<stop
   offset="0.5672"
   style="stop-color:#009277"
   id="stop22" />
	<stop
   offset="1"
   style="stop-color:#004846"
   id="stop24" />
</linearGradient>


<linearGradient
   id="SVGID_8_"
   gradientUnits="userSpaceOnUse"
   x1="280.04141"
   y1="347.51859"
   x2="214.63181"
   y2="328.93909">
	<stop
   offset="0.4328"
   style="stop-color:#009277"
   id="stop77" />
	<stop
   offset="0.9602"
   style="stop-color:#004846"
   id="stop79" />
</linearGradient>
<path
   id="polygon82-0"
   d="m 69.467929,11.268709 35.900391,38.59961 h 32.09961 v 33.29883 l 38.59961,-33.29883 -38.59961,-38.59961 z m 0,0 -38.59961,28.898438 38.59961,29.000002 z m 0,57.89844 -38.59961,34.201171 v 72.40039 l 38.59961,-44.30078 z m 0,62.300781 h 68.000001 l -34,-38.000001 z m 68.000001,0 38.59961,-29.5 -38.59961,-18.800781 z M 11.268709,194.66715 v 31.70117 h 3.29883 v -11 h 10.09961 c 7.6,0 11.40078,-3.59961 11.30078,-10.59961 0,-3.4 -1.00078,-6.00156 -2.80078,-7.60156 -1.9,-1.7 -4.69961,-2.5 -8.59961,-2.5 z m 42,0 -10.5,31.60156 h 3.29883 l 2.90039,-8.70117 0.80078,-2.5 5.89844,-17.90039 h 2.80078 l 5.90039,17.90039 0.79883,2.5 2.90039,8.70117 h 3.20117 l -10.40039,-31.60156 z m 29,0 v 31.70117 h 3.29883 v -11 h 10.09961 c 7.600001,0 11.400781,-3.59961 11.300781,-10.59961 0,-3.4 -1.00078,-6.00156 -2.80078,-7.60156 -1.9,-1.7 -4.699611,-2.5 -8.599611,-2.5 z m 36.500001,0 v 31.60156 h 3.29883 v -31.60156 z m 17.59961,0 v 31.5 h 21.79883 v -2.5 h -18.59961 v -12.29883 h 15.5 v -2.5 h -15.40039 v -11.70117 h 18.60156 v -2.5 z m 34.19922,0 v 31.70117 h 3.30078 v -12.5 -0.0996 h 11.09961 l 7.19922,12.5 h 3.60156 l -7.5,-13 c 4.7,-1.1 7,-4.10117 7,-9.20117 0,-3.2 -0.90078,-5.59961 -2.80078,-7.09961 -1.8,-1.5 -4.7,-2.30078 -8.5,-2.30078 z m -155.900391,2.60156 h 10.10156 c 2.80001,0 4.79961,0.59883 6.09961,1.79883 1.3,1.2 1.90039,3.10117 1.90039,5.70117 0,5.4 -2.69999,8.09961 -8,8.09961 h -10.10156 z m 71,0 h 10.10156 c 2.8,0 4.799611,0.59883 6.099611,1.79883 1.3,1.2 1.90039,3.10117 1.90039,5.70117 0,5.4 -2.69999,8.09961 -8.000001,8.09961 h -10.10156 z m 88.300781,0 h 10.09961 c 2.7,0 4.7,0.59922 6,1.69922 1.3,1.1 1.90039,2.79922 1.90039,5.19922 0,4.8 -2.70039,7.20078 -7.90039,7.30078 h -10.09961 z"
   style="opacity:0.631;fill:#000000;filter:url(#filter1539)" /><polygon
   class="st13"
   points="186.8,327.7 225.4,355.8 225.4,293.5 "
   id="polygon119"
   style="fill:url(#SVGID_13_)"
   transform="translate(-155.93129,-224.33149)" /><polygon
   class="st8"
   points="259.4,317.8 293.4,355.8 225.4,355.8 "
   id="polygon82"
   style="fill:url(#SVGID_8_)"
   transform="translate(-155.93129,-224.33149)" />
<linearGradient
   id="SVGID_9_"
   gradientUnits="userSpaceOnUse"
   x1="299.52731"
   y1="336.61029"
   x2="320.93539"
   y2="304.48489">
	<stop
   offset="0.4328"
   style="stop-color:#009277"
   id="stop84" />
	<stop
   offset="0.9602"
   style="stop-color:#004846"
   id="stop86" />
</linearGradient>
<polygon
   class="st9"
   points="332,326.3 293.4,307.5 293.4,355.8 "
   id="polygon89"
   style="fill:url(#SVGID_9_)"
   transform="translate(-155.93129,-224.33149)" />
<linearGradient
   id="SVGID_10_"
   gradientUnits="userSpaceOnUse"
   x1="312.94199"
   y1="304.15671"
   x2="312.14069"
   y2="265.56">
	<stop
   offset="0.4328"
   style="stop-color:#009277"
   id="stop91" />
	<stop
   offset="0.9602"
   style="stop-color:#004846"
   id="stop93" />
</linearGradient>
<polygon
   class="st10"
   points="332,274.2 293.4,274.2 293.4,307.5 "
   id="polygon96"
   style="fill:url(#SVGID_10_)"
   transform="translate(-155.93129,-224.33149)" />
<linearGradient
   id="SVGID_11_"
   gradientUnits="userSpaceOnUse"
   x1="316.65381"
   y1="289.8678"
   x2="263.86139"
   y2="242.87981">
	<stop
   offset="0.4328"
   style="stop-color:#009277"
   id="stop98" />
	<stop
   offset="0.9602"
   style="stop-color:#004846"
   id="stop100" />
</linearGradient>
<polygon
   class="st11"
   points="293.4,235.6 261.3,274.2 332,274.2 "
   id="polygon103"
   style="fill:url(#SVGID_11_)"
   transform="translate(-155.93129,-224.33149)" />
<linearGradient
   id="SVGID_12_"
   gradientUnits="userSpaceOnUse"
   x1="268.8175"
   y1="246.20039"
   x2="204.47479"
   y2="268.0744">
	<stop
   offset="0.4328"
   style="stop-color:#009277"
   id="stop105" />
	<stop
   offset="0.9602"
   style="stop-color:#004846"
   id="stop107" />
</linearGradient>
<polygon
   class="st12"
   points="225.4,235.6 293.4,235.6 261.3,274.2 "
   id="polygon110"
   style="fill:url(#SVGID_12_)"
   transform="translate(-155.93129,-224.33149)" />
<polygon
   class="st6"
   points="186.8,264.5 225.4,293.5 225.4,235.6 "
   id="polygon112"
   style="fill:#009277"
   transform="translate(-155.93129,-224.33149)" />
<linearGradient
   id="SVGID_13_"
   gradientUnits="userSpaceOnUse"
   x1="223.1824"
   y1="305.34119"
   x2="199.5575"
   y2="355.58691">
	<stop
   offset="0.4328"
   style="stop-color:#009277"
   id="stop114" />
	<stop
   offset="0.9602"
   style="stop-color:#004846"
   id="stop116" />
</linearGradient>

<polygon
   class="st6"
   points="186.8,400.1 186.8,327.7 225.4,355.8 "
   id="polygon121"
   style="fill:#009277"
   transform="translate(-155.93129,-224.33149)" />

<path
   d="m 24.668709,215.36851 h -10.1 v 11 h -3.3 v -31.7 h 13.3 c 3.9,0 6.7,0.8 8.6,2.5 1.8,1.6 2.8,4.2 2.8,7.6 0.1,7 -3.7,10.6 -11.3,10.6 z m -10,-2.5 h 10.1 c 5.3,0 8,-2.7 8,-8.1 0,-2.6 -0.6,-4.5 -1.9,-5.7 -1.3,-1.2 -3.3,-1.8 -6.1,-1.8 h -10.1 z"
   id="path125" />
<path
   class="st6"
   d="m 64.368709,215.06851 -5.9,-17.9 h -2.8 l -5.9,17.9 -0.8,2.5 -2.9,8.7 h -3.3 l 10.5,-31.6 h 7.6 l 10.4,31.6 h -3.2 l -2.9,-8.7"
   id="path127"
   style="fill:#009277" />
<path
   d="m 95.668709,215.36851 h -10.1 v 11 h -3.3 v -31.7 h 13.3 c 3.9,0 6.700001,0.8 8.600001,2.5 1.8,1.6 2.8,4.2 2.8,7.6 0.1,7 -3.7,10.6 -11.300001,10.6 z m -10,-2.5 h 10.1 c 5.300001,0 8.000001,-2.7 8.000001,-8.1 0,-2.6 -0.6,-4.5 -1.9,-5.7 -1.3,-1.2 -3.300001,-1.8 -6.100001,-1.8 h -10.1 z"
   id="path129" />
<path
   d="m 118.76871,226.36851 v -31.7 h 3.3 v 31.6 h -3.3 z"
   id="path131" />
<path
   d="m 136.36871,226.36851 v -31.7 h 21.9 v 2.5 h -18.6 v 11.7 h 15.4 v 2.5 h -15.5 v 12.3 h 18.6 v 2.5 h -21.8 z"
   id="path133" />
<path
   d="m 173.86871,213.86851 v 12.5 h -3.3 v -31.7 h 13.4 c 3.8,0 6.7,0.8 8.5,2.3 1.9,1.5 2.8,3.9 2.8,7.1 0,5.1 -2.3,8.1 -7,9.2 l 7.5,13 h -3.6 l -7.2,-12.5 h -11.1 z m 18.1,-9.7 c 0,-2.4 -0.6,-4.1 -1.9,-5.2 -1.3,-1.1 -3.3,-1.7 -6,-1.7 h -10.1 v 14.2 h 10.1 c 5.2,-0.1 7.9,-2.5 7.9,-7.3 z"
   id="path135" />
















</svg>