<?xml version="1.0" encoding="UTF-8" standalone="no"?>
<svg
   xmlns:dc="http://purl.org/dc/elements/1.1/"
   xmlns:cc="http://creativecommons.org/ns#"
   xmlns:rdf="http://www.w3.org/1999/02/22-rdf-syntax-ns#"
   xmlns:svg="http://www.w3.org/2000/svg"
   xmlns="http://www.w3.org/2000/svg"
   height="133.2"
   width="146.8"
   xml:space="preserve"
   viewBox="0 0 146.8 133.2"
   y="0px"
   x="0px"
   id="Capa_1"
   version="1.1"><metadata
   id="metadata300"><rdf:RDF><cc:Work
       rdf:about=""><dc:format>image/svg+xml</dc:format><dc:type
         rdf:resource="http://purl.org/dc/dcmitype/StillImage" /><dc:title></dc:title></cc:Work></rdf:RDF></metadata><defs
   id="defs298" />
<style
   id="style10"
   type="text/css">
	.st0{fill:url(#SVGID_1_);}
	.st1{fill:url(#SVGID_2_);}
	.st2{fill:url(#SVGID_3_);}
	.st3{fill:url(#SVGID_4_);}
	.st4{fill:url(#SVGID_5_);}
	.st5{fill:url(#SVGID_6_);}
	.st6{fill:#009277;}
	.st7{fill:url(#SVGID_7_);}
	.st8{fill:url(#SVGID_8_);}
	.st9{fill:url(#SVGID_9_);}
	.st10{fill:url(#SVGID_10_);}
	.st11{fill:url(#SVGID_11_);}
	.st12{fill:url(#SVGID_12_);}
	.st13{fill:url(#SVGID_13_);}
	.st14{fill:#004846;}
	.st15{fill:#58167D;}
	.st16{fill:#E6B54A;}
	.st17{fill:#BF0811;}
	.st18{fill:#336535;}
	.st19{fill:#009BDB;}
	.st20{fill:#FFFFFF;}
	.st21{font-family:'MyriadPro-Regular';}
	.st22{font-size:22.2px;}
</style>
<path
   id="path12"
   d="M 134.8,133.2 H 12 c -6.6,0 -12,-5.4 -12,-12 V 12 C 0,5.4 5.4,0 12,0 h 122.8 c 6.6,0 12,5.4 12,12 v 109.2 c 0,6.6 -5.4,12 -12,12 z" />
<linearGradient
   y2="159.9334"
   x2="109.0345"
   y1="67.633904"
   x1="55.7453"
   gradientUnits="userSpaceOnUse"
   id="SVGID_1_">
	<stop
   id="stop14"
   style="stop-color:#75AD7A"
   offset="9.452736e-02" />
	<stop
   id="stop16"
   style="stop-color:#70AC7A"
   offset="0.194" />
	<stop
   id="stop18"
   style="stop-color:#60A679"
   offset="0.3217" />
	<stop
   id="stop20"
   style="stop-color:#3D9C78"
   offset="0.4642" />
	<stop
   id="stop22"
   style="stop-color:#009277"
   offset="0.5672" />
	<stop
   id="stop24"
   style="stop-color:#004846"
   offset="1" />
</linearGradient>


<linearGradient
   y2="328.93909"
   x2="214.63181"
   y1="347.51859"
   x1="280.04141"
   gradientUnits="userSpaceOnUse"
   id="SVGID_8_">
	<stop
   id="stop77"
   style="stop-color:#009277"
   offset="0.4328" />
	<stop
   id="stop79"
   style="stop-color:#004846"
   offset="0.9602" />
</linearGradient>

<linearGradient
   y2="304.48489"
   x2="320.93539"
   y1="336.61029"
   x1="299.52731"
   gradientUnits="userSpaceOnUse"
   id="SVGID_9_">
	<stop
   id="stop84"
   style="stop-color:#009277"
   offset="0.4328" />
	<stop
   id="stop86"
   style="stop-color:#004846"
   offset="0.9602" />
</linearGradient>

<linearGradient
   y2="265.56"
   x2="312.14069"
   y1="304.15671"
   x1="312.94199"
   gradientUnits="userSpaceOnUse"
   id="SVGID_10_">
	<stop
   id="stop91"
   style="stop-color:#009277"
   offset="0.4328" />
	<stop
   id="stop93"
   style="stop-color:#004846"
   offset="0.9602" />
</linearGradient>

<linearGradient
   y2="242.87981"
   x2="263.86139"
   y1="289.8678"
   x1="316.65381"
   gradientUnits="userSpaceOnUse"
   id="SVGID_11_">
	<stop
   id="stop98"
   style="stop-color:#009277"
   offset="0.4328" />
	<stop
   id="stop100"
   style="stop-color:#004846"
   offset="0.9602" />
</linearGradient>

<linearGradient
   y2="268.0744"
   x2="204.47479"
   y1="246.20039"
   x1="268.8175"
   gradientUnits="userSpaceOnUse"
   id="SVGID_12_">
	<stop
   id="stop105"
   style="stop-color:#009277"
   offset="0.4328" />
	<stop
   id="stop107"
   style="stop-color:#004846"
   offset="0.9602" />
</linearGradient>


<linearGradient
   y2="355.58691"
   x2="199.5575"
   y1="305.34119"
   x1="223.1824"
   gradientUnits="userSpaceOnUse"
   id="SVGID_13_">
	<stop
   id="stop114"
   style="stop-color:#009277"
   offset="0.4328" />
	<stop
   id="stop116"
   style="stop-color:#004846"
   offset="0.9602" />
</linearGradient>




















<g
   transform="translate(-252.6,-877.5)"
   id="g285">
	<path
   style="fill:#ffffff"
   id="path271"
   d="m 357.9,909.6 c 0,0 0,0 0,0 0.2,-0.2 0.3,-0.4 0.3,-0.6 0,0 0,0 0,0 0,-0.1 0,-0.1 0,-0.2 0,-0.1 -0.1,-0.3 -0.2,-0.4 0,0 0,0 0,-0.1 0,0 0,0 0,0 -5.7,-5.7 -11.4,-11.4 -17.1,-17.1 0,0 -0.3,-0.3 -0.7,-0.3 -9.9,0 -19.8,0 -29.7,0 -0.4,0 -0.7,0 -0.8,0.1 0,0 -11.4,8.6 -17.1,12.8 -0.6,0.5 -0.6,1.2 0,1.6 5.4,4 10.7,8 16.1,12 -5.4,4.8 -10.8,9.6 -16.2,14.4 -0.2,0.2 -0.3,0.4 -0.3,0.6 0,0 0,0 0,0 0,10.7 0,21.3 0,32 0,0.8 1.1,1.3 1.6,0.7 5.6,-6.4 11.2,-12.9 16.8,-19.3 9.8,0 19.6,0 29.4,0 0.4,0 0.7,-0.1 0.9,-0.3 0,0 11.3,-8.6 16.9,-12.9 0.5,-0.4 0.7,-1.3 0,-1.6 -5.3,-2.6 -10.6,-5.2 -15.8,-7.7 5.2,-4.5 10.5,-9.1 15.9,-13.7 0,0 0,0 0,0 z M 311,894.3 c 4.8,5.1 9.4,10.1 14.2,15.2 0,0 0.4,0.4 1,0.4 4.3,0 8.7,0 13,0 0,4.5 0,9.1 0,13.6 v 0.3 c 0,6.3 0,12.5 0,18.8 -4.5,-5 -8.9,-10 -13.4,-15 -0.3,-0.4 -1,-0.4 -1.3,0 -4.5,5 -8.9,10 -13.4,15 0,-8.3 0,-16.6 0,-24.9 v -23.4 z m 14.9,13.2 c -4.6,-4.9 -9.1,-9.8 -13.7,-14.7 8.6,0 17.2,0 25.9,0 -4.1,4.9 -8.1,9.8 -12.2,14.7 z m -16.8,8.1 c -4.9,-3.6 -9.7,-7.3 -14.6,-10.9 4.9,-3.6 9.7,-7.3 14.6,-10.9 0,7.2 0,14.5 0,21.8 z m 0,27.6 c -4.9,-3.5 -9.7,-7.1 -14.6,-10.6 4.9,-4.3 9.7,-8.6 14.6,-13 0,7.8 0,15.7 0,23.6 z m -15.2,-8.7 c 4.9,3.6 9.8,7.2 14.7,10.7 -4.9,5.6 -9.8,11.3 -14.7,16.9 0,-9.2 0,-18.4 0,-27.6 z m 24.3,2.8 c 1.7,-1.9 3.4,-3.8 5.2,-5.8 0.3,-0.3 1.2,-1.1 1.7,-1.7 0.5,0.6 1.4,1.4 1.7,1.7 1.7,1.9 3.4,3.8 5.2,5.8 2,2.3 4,4.5 6.1,6.8 -8.6,0 -17.2,0 -25.8,0 1.9,-2.3 3.9,-4.5 5.9,-6.8 z m 22.9,-12.1 c 4.8,2.3 9.6,4.7 14.3,7 -4.8,3.6 -9.6,7.3 -14.3,10.9 0,-6 0,-11.9 0,-17.9 z m 0,-15.3 c 4.5,0 9,0 13.6,0 -4.5,3.9 -9,7.8 -13.6,11.7 0,-3.9 0,-7.8 0,-11.7 z m 13.8,-1.9 c -4.9,0 -9.9,0 -14.8,0 -4.1,0 -8.1,0 -12.2,0 3.7,-4.4 7.3,-8.8 11,-13.2 0.4,-0.4 0.9,-0.9 1.3,-1.5 5.1,4.7 9.9,9.8 14.7,14.7 z"
   class="st20" />
	<path
   style="fill:#ffffff"
   id="path273"
   d="M 290.6,983.8 H 286 v 5.1 h -1.5 v -14.7 h 6.2 c 1.8,0 3.1,0.4 4,1.1 0.9,0.8 1.3,1.9 1.3,3.5 -0.1,3.4 -1.9,5 -5.4,5 z m -4.6,-1.2 h 4.7 c 2.5,0 3.7,-1.2 3.7,-3.8 0,-1.2 -0.3,-2.1 -0.9,-2.6 -0.6,-0.6 -1.5,-0.8 -2.8,-0.8 H 286 Z"
   class="st20" />
	<path
   style="fill:#ffffff"
   id="path275"
   d="m 309,983.7 -2.7,-8.3 H 305 l -2.7,8.3 -0.4,1.2 -1.3,4 H 299 l 4.9,-14.7 h 3.5 l 4.8,14.7 h -1.5 l -1.4,-4"
   class="st20" />
	<path
   style="fill:#ffffff"
   id="path277"
   d="m 323.5,983.8 h -4.7 v 5.1 h -1.5 v -14.7 h 6.2 c 1.8,0 3.1,0.4 4,1.1 0.9,0.8 1.3,1.9 1.3,3.5 -0.1,3.4 -1.8,5 -5.3,5 z m -4.7,-1.2 h 4.7 c 2.5,0 3.7,-1.2 3.7,-3.8 0,-1.2 -0.3,-2.1 -0.9,-2.6 -0.6,-0.6 -1.5,-0.8 -2.8,-0.8 h -4.7 z"
   class="st20" />
	<path
   style="fill:#ffffff"
   id="path279"
   d="m 334.2,988.9 v -14.7 h 1.5 v 14.7 z"
   class="st20" />
	<path
   style="fill:#ffffff"
   id="path281"
   d="m 342.3,988.9 v -14.7 h 10.1 v 1.2 h -8.6 v 5.4 h 7.2 v 1.2 h -7.2 v 5.7 h 8.6 v 1.2 z"
   class="st20" />
	<path
   style="fill:#ffffff"
   id="path283"
   d="m 359.7,983.1 v 5.8 h -1.5 v -14.7 h 6.2 c 1.8,0 3.1,0.3 3.9,1 0.9,0.7 1.3,1.8 1.3,3.3 0,2.3 -1.1,3.8 -3.3,4.3 l 3.5,6 h -1.7 l -3.3,-5.8 h -5.1 z m 8.4,-4.5 c 0,-1.1 -0.3,-1.9 -0.9,-2.4 -0.6,-0.5 -1.5,-0.8 -2.8,-0.8 h -4.7 v 6.6 h 4.7 c 2.4,0 3.7,-1.2 3.7,-3.4 z"
   class="st20" />
</g>




</svg>