<?xml version="1.0" encoding="UTF-8" standalone="no"?>
<svg
   xmlns:dc="http://purl.org/dc/elements/1.1/"
   xmlns:cc="http://creativecommons.org/ns#"
   xmlns:rdf="http://www.w3.org/1999/02/22-rdf-syntax-ns#"
   xmlns:svg="http://www.w3.org/2000/svg"
   xmlns="http://www.w3.org/2000/svg"
   viewBox="0 0 107.52 97.279999"
   height="97.279999"
   width="107.52"
   id="svg2"
   version="1.1">
  <metadata
     id="metadata8">
    <rdf:RDF>
      <cc:Work
         rdf:about="">
        <dc:format>image/svg+xml</dc:format>
        <dc:type
           rdf:resource="http://purl.org/dc/dcmitype/StillImage" />
        <dc:title></dc:title>
      </cc:Work>
    </rdf:RDF>
  </metadata>
  <defs
     id="defs6" />
  <path
     id="path3721"
     d="m 53.737305,-0.01873516 c -36.040951,0 -40.383293,0.05333 -41.941405,0.51562 C 5.7010477,2.3052248 1.2066907,7.4139548 0.28808673,13.580875 c -0.220154,1.47794 -0.301024,13.8891 -0.240234,36.48047 l 0.091797,34.24023 0.720703,1.894531 C 2.9636987,91.727738 6.8098117,95.311092 12.20215,96.762513 c 2.63911,0.710378 80.224041,0.719573 82.988281,0.0098 6.051029,-1.553798 10.565419,-6.231436 11.845709,-12.271484 0.36921,-1.741789 0.45008,-8.163453 0.45508,-36.068359 0.005,-32.9167 -0.0139,-34.02563 -0.63478,-36.45313 -0.35217,-1.37699 -1.02654,-3.1635302 -1.49804,-3.9707002 -1.29516,-2.21717 -4.06655,-4.95561 -6.113279,-6.03906 -3.98544,-2.10971996 -1.20927,-1.98827996 -45.507816,-1.98827996 z m 11.685547,14.40039016 6.158203,6.16406 c 3.386308,3.38965 6.15625,6.4118 6.15625,6.7168 0,0.30499 -0.39686,0.90121 -0.88086,1.32617 -0.484,0.42495 -2.751062,2.38189 -5.039062,4.34766 -2.288,1.96577 -4.197428,3.67207 -4.242188,3.79296 -0.04475,0.1209 2.157339,1.33693 4.892578,2.70118 2.735238,1.36425 5.052198,2.68474 5.148438,2.93554 0.09625,0.2508 0.05493,0.66851 -0.0918,0.92774 -0.146727,0.25923 -2.902987,2.50101 -6.125,4.98047 l -5.859375,4.50781 -10.140625,0.0078 -10.142578,0.0078 -5.693359,6.55274 c -4.4456,5.114927 -5.862365,6.550779 -6.460938,6.550779 -0.421692,0 -0.844923,-0.124393 -0.939453,-0.277343 -0.301627,-0.488055 -0.231504,-23.177126 0.07227,-23.374996 0.409177,-0.26654 10.302734,-9.06091 10.302734,-9.15821 0,-0.04415 -2.37725,-1.85673 -5.28125,-4.02734 -4.07953,-3.04925 -5.279297,-4.11047 -5.279297,-4.66406 0,-0.55616 1.378684,-1.75603 6.160156,-5.36524 l 6.160157,-4.65039 h 10.5625 z m -10.416016,2.59179 c -1.302058,0 -2.613693,0.01226 -3.623047,0.03711 l -3.671875,0.08985 3.732422,4.05664 c 3.488838,3.7914 3.768094,4.02056 4.267578,3.51953 0.293888,-0.29479 1.846765,-2.11869 3.451172,-4.05469 l 2.916016,-3.52148 -3.511719,-0.08985 c -0.966183,-0.02485 -2.258489,-0.03711 -3.560547,-0.03711 z m 9.890625,0.95313 c -0.06093,-5.6e-4 -0.108039,0.02038 -0.142578,0.05859 -0.197158,0.21812 -1.753159,2.08825 -3.457031,4.15625 l -3.097657,3.75977 h 7.603516 7.603516 l -4.146485,-4.15625 c -2.797256,-2.80348 -3.936809,-3.81441 -4.363281,-3.81836 z m -21.666016,0.61523 c -0.339504,0 -7.543756,5.38526 -7.666015,5.73047 -0.05053,0.14268 1.666595,1.57714 3.816406,3.18555 2.149811,1.60842 3.954999,2.92383 4.011719,2.92383 0.05671,0 0.103515,-2.66392 0.103515,-5.91992 0,-3.256 -0.119878,-5.91993 -0.265625,-5.91993 z m 2.91211,0.66797 c -0.375494,-0.1085 -0.390775,1.85238 -0.382813,14.38867 l 0.0098,14.86329 0.863281,-0.99219 c 4.600579,-5.28704 7.60654,-8.44736 8.03125,-8.44336 0.739053,0.0071 0.798777,0.06371 4.964844,4.71484 2.0888,2.332 3.849129,4.24024 3.912109,4.24024 0.06297,0 0.115235,-4.39177 0.115235,-9.75977 v -9.75976 h -4.427769 -4.429687 l -3.947266,-4.24024 c -2.171603,-2.332 -4.208795,-4.52024 -4.52539,-4.86328 -0.06936,-0.07515 -0.129952,-0.13294 -0.183594,-0.14844 z m 20.074218,9.25196 v 2.92968 c 0,2.75423 0.03211,2.90088 0.558594,2.46289 0.971898,-0.80856 5.340817,-4.53438 5.830078,-4.97265 0.389997,-0.34933 -0.107292,-0.41992 -2.960937,-0.41992 z m -22.960937,7.68164 c -0.233002,0.0013 -7.701634,6.53678 -7.847656,6.86718 -0.04007,0.09066 1.710528,1.46111 3.888672,3.04688 2.178144,1.58576 4.014218,2.88477 4.080078,2.88477 0.06586,0 0.11914,-2.8804 0.11914,-6.4004 0,-3.52 -0.108234,-6.39917 -0.240234,-6.39843 z m 23.201172,3.21484 c -0.132,-0.0091 -0.240235,2.16072 -0.240235,4.82227 0,3.823 0.08243,4.77368 0.398438,4.52929 0.22,-0.17014 1.967943,-1.50814 3.882812,-2.97461 l 3.480469,-2.66601 -3.640625,-1.84766 c -2.00287,-1.01585 -3.748859,-1.85428 -3.880859,-1.86328 z m -11.779297,3.03516 c -0.116499,0.072 -1.755047,1.86173 -3.640625,3.97851 l -3.427734,3.84961 h 7.078125 c 5.851527,0 7.035728,-0.0751 6.824218,-0.43164 -0.558624,-0.94168 -6.635712,-7.51902 -6.833984,-7.39648 z m -19.875,3.7207 c -0.1468,-0.05867 -0.265625,3.31804 -0.265625,7.50391 0,4.41768 0.117237,7.483098 0.28125,7.306637 1.8244,-1.962827 7.716138,-8.869077 7.710937,-9.039067 -0.0063,-0.20895 -7.138533,-5.53648 -7.726562,-5.77148 z m 14.609375,25.318359 2.841797,0.04687 c 2.61951,0.04282 2.888172,0.06934 3.414062,0.339844 0.31387,0.16146 0.695107,0.462602 0.847657,0.669922 0.91266,1.24034 0.634761,3.68712 -0.511719,4.5 -0.65696,0.4658 -1.299269,0.588409 -3.47461,0.662109 l -2.158203,0.07227 v 1.638672 1.638672 H 49.893555 49.413086 V 76.21759 Z m 27.671875,0 2.84375,0.04687 c 2.5846,0.04225 2.89239,0.07131 3.39062,0.328125 0.65336,0.33675 0.9519,0.638299 1.16797,1.173829 0.21417,0.530829 0.2205,1.870702 0.01172,2.476562 -0.16889,0.49014 -1.10015,1.431547 -1.41992,1.435547 -0.59186,0.007 -0.53392,0.234494 0.50195,1.958984 1.35666,2.25853 1.3229,2.149531 0.67774,2.144531 l -0.5293,-0.0039 -1.09766,-1.884765 -1.0996,-1.884766 -1.74414,-0.03711 -1.744146,-0.03711 v 1.925782 1.925781 H 77.56543 77.084961 v -4.783203 z m -49.865234,0.0039 2.779296,0.04297 c 2.66257,0.04113 2.806036,0.05632 3.453126,0.378907 0.94283,0.47 1.364375,1.268872 1.359374,2.570312 -0.005,1.16502 -0.209256,1.766881 -0.779296,2.300781 -0.76414,0.71569 -1.309643,0.852635 -3.695313,0.927735 l -2.158203,0.06836 v 1.638672 1.636719 h -0.478516 -0.480468 v -4.78125 z m 15.412109,0.01172 1.609375,4.679688 c 0.88531,2.57384 1.609375,4.727156 1.609375,4.785156 0,0.058 -0.228183,0.0851 -0.507813,0.0625 l -0.507812,-0.04102 -1.486328,-4.416015 -1.486328,-4.414063 -0.4375,0.03906 -0.4375,0.04102 -1.5,4.408204 -1.501953,4.408203 h -0.527344 c -0.44165,0 -0.517125,-0.03872 -0.453125,-0.232422 0.04217,-0.1276 0.776389,-2.259181 1.630859,-4.738281 l 1.552735,-4.507813 1.222656,-0.03711 z m 18.152344,0.0078 h 0.478515 0.480469 v 4.773437 4.771485 H 61.262695 60.78418 v -4.771485 z m 5.478515,0 h 3.425782 3.423828 v 0.330078 0.328125 l -2.910156,0.03516 -2.91211,0.03516 v 1.791016 1.789063 l 2.431641,0.03711 2.43164,0.03516 v 0.328125 0.330078 H 69.688477 67.22168 v 1.855469 1.855469 h 2.945312 2.945313 v 0.398437 0.396485 h -3.423828 -3.425782 v -4.771485 z m -38.083984,0.638672 v 2.398437 2.398438 h 1.992188 c 1.72595,0 2.064703,-0.03629 2.533203,-0.267578 0.73782,-0.36426 1.092076,-1.060665 1.091797,-2.146485 -2.91e-4,-1.02074 -0.299585,-1.650644 -0.958985,-2.021484 -0.41295,-0.23222 -0.769109,-0.277606 -2.568359,-0.316406 z m 22.193359,0 v 2.408203 2.40625 l 2.158203,-0.04102 c 2.002511,-0.03923 2.188376,-0.06502 2.603516,-0.351562 0.64735,-0.44682 0.902563,-1.006979 0.914063,-2.011719 0.01164,-1.0222 -0.295638,-1.635058 -1.023438,-2.048828 -0.40938,-0.2327 -0.76057,-0.277606 -2.5625,-0.316406 z m 27.671875,0 v 2.21289 2.210938 l 2.089846,-0.04492 c 1.79925,-0.03879 2.15541,-0.08221 2.56836,-0.314453 0.63301,-0.356 0.95935,-1.007819 0.95898,-1.917969 -4.5e-4,-0.86892 -0.32616,-1.470216 -0.98633,-1.816406 -0.36293,-0.19037 -0.86087,-0.245503 -2.54101,-0.283203 z"
     style="fill:#000000;stroke-width:0.31999999" />
</svg>
